<?xml version="1.0" encoding="utf-8" standalone="yes"?>
<!DOCTYPE svg PUBLIC "-//W3C//DTD SVG 1.1//EN" "http://www.w3.org/Graphics/SVG/1.1/DTD/svg11.dtd">
<svg style="fill:none;stroke:none;fill-rule:evenodd;clip-rule:evenodd;stroke-linecap:round;stroke-linejoin:round;stroke-miterlimit:1.5;" version="1.1" xmlns="http://www.w3.org/2000/svg" xmlns:xlink="http://www.w3.org/1999/xlink" width="936" height="786" viewBox="0 0 936 786"><style class="text-font-style fontImports" data-font-family="Roboto">@import url(https://fonts.googleapis.com/css2?family=Roboto:wght@400;700&amp;amp;display=block);</style><g id="items" style="isolation: isolate"><g id="blend" style="mix-blend-mode: normal"><g id="g-root-cp_5_g-5_5vq4814b6brh-fill" data-item-order="-607383" transform="translate(458, 248)"></g><g id="g-root-cp_5_g-5_5vq4814b6brh-stroke" data-item-order="-607383" transform="translate(458, 248)"><g id="cp_5_g-5_5vq4814b6brh-stroke" fill="none" stroke-linecap="round" stroke-linejoin="round" stroke-miterlimit="4" stroke="#ba5de5" stroke-width="2" stroke-opacity="1"><g><path d="M 112 52C 112.000001 75.19596 130.804041 94.000001 154.000001 94.000001C 177.19596 94.000001 196.000001 75.19596 196.000001 52.000001C 196.000001 28.804041 177.19596 10.000001 154.000001 10.000001C 130.804041 10.000001 112.000001 28.804041 112.000001 52.000001"></path></g></g><g id="cp_5_g-5_5vq4814b6brh-stroke" fill="none" stroke-linecap="round" stroke-linejoin="round" stroke-miterlimit="4" stroke="#ba5de5" stroke-width="2" stroke-opacity="1"><g><path d="M 99.2124 91.609512C 87.7684 100.408812 58.3223 124.076712 38.7089 148.990712C 15.4902 178.484212 10.0002 215.560712 10 233.500012L 10 291.500112"></path></g></g><g id="cp_5_g-5_5vq4814b6brh-stroke" fill="none" stroke-linecap="round" stroke-linejoin="round" stroke-miterlimit="4" stroke="#ba5de5" stroke-width="2" stroke-opacity="1"><g><path d="M 98 88C 98 91.313709 100.686292 94 104 94C 107.313709 94 110 91.313709 110 88C 110 84.686292 107.313709 82 104 82C 100.686292 82 98 84.686292 98 88"></path></g></g></g><g id="g-root-cp_4_g-4_1lw5qt414b69zi-fill" data-item-order="-607377" transform="translate(416, 188)"></g><g id="g-root-cp_4_g-4_1lw5qt414b69zi-stroke" data-item-order="-607377" transform="translate(416, 188)"><g id="cp_4_g-4_1lw5qt414b69zi-stroke" fill="none" stroke-linecap="round" stroke-linejoin="round" stroke-miterlimit="4" stroke="#de58a9" stroke-width="2" stroke-opacity="1"><g><path d="M 10 52C 10.000001 75.19596 28.804041 94.000001 52.000001 94.000001C 75.19596 94.000001 94.000001 75.19596 94.000001 52.000001C 94.000001 28.804041 75.19596 10.000001 52.000001 10.000001C 28.804041 10.000001 10.000001 28.804041 10.000001 52.000001"></path></g></g><g id="cp_4_g-4_1lw5qt414b69zi-stroke" fill="none" stroke-linecap="round" stroke-linejoin="round" stroke-miterlimit="4" stroke="#de58a9" stroke-width="2" stroke-opacity="1"><g><path d="M 52.00069 118L 52.00109 351.5"></path></g></g><g id="cp_4_g-4_1lw5qt414b69zi-stroke" fill="none" stroke-linecap="round" stroke-linejoin="round" stroke-miterlimit="4" stroke="#de58a9" stroke-width="2" stroke-opacity="1"><g><path d="M 46 112C 46 115.313709 48.686292 118 52 118C 55.313709 118 58 115.313709 58 112C 58 108.686292 55.313709 106 52 106C 48.686292 106 46 108.686292 46 112"></path></g></g></g><g id="g-root-cp_3_g-3_1hgc8oo14b6arr-fill" data-item-order="-607371" transform="translate(272, 248)"></g><g id="g-root-cp_3_g-3_1hgc8oo14b6arr-stroke" data-item-order="-607371" transform="translate(272, 248)"><g id="cp_3_g-3_1hgc8oo14b6arr-stroke" fill="none" stroke-linecap="round" stroke-linejoin="round" stroke-miterlimit="4" stroke="#e55753" stroke-width="2" stroke-opacity="1"><g><path d="M 10 52C 10.000001 75.19596 28.804041 94.000001 52.000001 94.000001C 75.19596 94.000001 94.000001 75.19596 94.000001 52.000001C 94.000001 28.804041 75.19596 10.000001 52.000001 10.000001C 28.804041 10.000001 10.000001 28.804041 10.000001 52.000001"></path></g></g><g id="cp_3_g-3_1hgc8oo14b6arr-stroke" fill="none" stroke-linecap="round" stroke-linejoin="round" stroke-miterlimit="4" stroke="#e55753" stroke-width="2" stroke-opacity="1"><g><path d="M 105.78479 91.607468C 117.22689 100.405168 146.67609 124.074768 166.29099 148.990668C 189.50969 178.484168 196.00029 214.969468 195.99999 233.408768L 195.99999 291.500068"></path></g></g><g id="cp_3_g-3_1hgc8oo14b6arr-stroke" fill="none" stroke-linecap="round" stroke-linejoin="round" stroke-miterlimit="4" stroke="#e55753" stroke-width="2" stroke-opacity="1"><g><path d="M 95 88C 95 91.3137 97.6863 94 101 94C 104.3137 94 107 91.3137 107 88C 107 84.6863 104.3137 82 101 82C 97.6863 82 95 84.6863 95 88Z"></path></g></g></g><g id="g-root-cp_2_g-2_144vqbc14b6cco-fill" data-item-order="-607365" transform="translate(224, 368)"></g><g id="g-root-cp_2_g-2_144vqbc14b6cco-stroke" data-item-order="-607365" transform="translate(224, 368)"><g id="cp_2_g-2_144vqbc14b6cco-stroke" fill="none" stroke-linecap="round" stroke-linejoin="round" stroke-miterlimit="4" stroke="#de8431" stroke-width="2" stroke-opacity="1"><g><path d="M 10 52C 10.000001 75.19596 28.804041 94.000001 52.000001 94.000001C 75.19596 94.000001 94.000001 75.19596 94.000001 52.000001C 94.000001 28.804041 75.19596 10.000001 52.000001 10.000001C 28.804041 10.000001 10.000001 28.804041 10.000001 52.000001"></path></g></g><g id="cp_2_g-2_144vqbc14b6cco-stroke" fill="none" stroke-linecap="round" stroke-linejoin="round" stroke-miterlimit="4" stroke="#de8431" stroke-width="2" stroke-opacity="1"><g><path d="M 118 53.2105C 118 53.2105 205.3988 45.7192 231.9827 120.1255C 238.7821 138.3293 242.9905 155.355 243.8403 171.5"></path></g></g><g id="cp_2_g-2_144vqbc14b6cco-stroke" fill="none" stroke-linecap="round" stroke-linejoin="round" stroke-miterlimit="4" stroke="#de8431" stroke-width="2" stroke-opacity="1"><g><path d="M 106 53C 106 56.3137 108.6863 59 112 59C 115.3137 59 118 56.3137 118 53C 118 49.6863 115.3137 47 112 47C 108.6863 47 106 49.6863 106 53Z"></path></g></g></g><g id="g-root-cp_1_g-1_zpopa014b69z5-fill" data-item-order="-607359" transform="translate(374, 529)"></g><g id="g-root-cp_1_g-1_zpopa014b69z5-stroke" data-item-order="-607359" transform="translate(374, 529)"><g id="cp_1_g-1_zpopa014b69z5-stroke" fill="none" stroke-linecap="round" stroke-linejoin="round" stroke-miterlimit="4" stroke="#1eabda" stroke-width="2" stroke-opacity="1"><g><path d="M 10 94C 10.000002 140.391921 47.608083 178.000002 94.000002 178.000002C 140.391921 178.000002 178.000002 140.391921 178.000002 94.000002C 178.000002 47.608083 140.391921 10.000002 94.000002 10.000002C 47.608083 10.000002 10.000002 47.608083 10.000002 94.000002"></path></g></g></g><g id="g-root-tx_engageme_v2zz7c14b7pqi-fill" data-item-order="0" transform="translate(363.953125, 116)"><g id="tx_engageme_v2zz7c14b7pqi-fill-merged" stroke="none" fill="#de58a9" fill-opacity="1"><g><text style="font: 20px Roboto, sans-serif; white-space: pre;" transform="translate(104.046875, 22)" font-size="20px" font-family="Roboto, sans-serif"><tspan x="-92.05" y="11.5" dominant-baseline="ideographic">Engagement Metrics</tspan></text></g></g></g><g id="g-root-tx_engageme_v2zz7c14b7pqi-stroke" data-item-order="0" transform="translate(363.953125, 116)"></g><g id="g-root-tx_increase_dccfso14b7oxv-fill" data-item-order="0" transform="translate(366.1953125, 152)"><g id="tx_increase_dccfso14b7oxv-fill-merged" stroke="none" fill="#ffffff" fill-opacity="1"><g><text style="font: 15px Roboto, sans-serif; white-space: pre;" transform="translate(101.8046875, 19)" font-size="15px" font-family="Roboto, sans-serif"><tspan x="-89.8" y="8.5" dominant-baseline="ideographic">Increased session duration</tspan></text></g></g></g><g id="g-root-tx_increase_dccfso14b7oxv-stroke" data-item-order="0" transform="translate(366.1953125, 152)"></g><g id="g-root-tx_3_qvx4ag14b69s5-fill" data-item-order="0" transform="translate(447.56640625, 212)"><g id="tx_3_qvx4ag14b69s5-fill-merged" stroke="none" fill="#de58a9" fill-opacity="1"><g><text style="font: 30px Roboto, sans-serif; white-space: pre;" transform="translate(20.43359375, 28)" font-size="30px" font-family="Roboto, sans-serif"><tspan x="-8.43" y="17.5" dominant-baseline="ideographic">3</tspan></text></g></g></g><g id="g-root-tx_3_qvx4ag14b69s5-stroke" data-item-order="0" transform="translate(447.56640625, 212)"></g><g id="g-root-tx_operatio_vxfc14b7qis-fill" data-item-order="0" transform="translate(147.5390625, 242)"><g id="tx_operatio_vxfc14b7qis-fill-merged" stroke="none" fill="#e55753" fill-opacity="1"><g><text style="font: 20px Roboto, sans-serif; white-space: pre;" transform="translate(116.4609375, 34)" font-size="20px" font-family="Roboto, sans-serif"><tspan x="-104.46" y="-0.5" dominant-baseline="ideographic">Operational </tspan><tspan x="-87.35" y="23.5" dominant-baseline="ideographic">Efficiency</tspan></text></g></g></g><g id="g-root-tx_operatio_vxfc14b7qis-stroke" data-item-order="0" transform="translate(147.5390625, 242)"></g><g id="g-root-tx_2_i0a41k14b6aku-fill" data-item-order="0" transform="translate(303.56640625, 272)"><g id="tx_2_i0a41k14b6aku-fill-merged" stroke="none" fill="#e55753" fill-opacity="1"><g><text style="font: 30px Roboto, sans-serif; white-space: pre;" transform="translate(20.43359375, 28)" font-size="30px" font-family="Roboto, sans-serif"><tspan x="-8.43" y="17.5" dominant-baseline="ideographic">2</tspan></text></g></g></g><g id="g-root-tx_2_i0a41k14b6aku-stroke" data-item-order="0" transform="translate(303.56640625, 272)"></g><g id="g-root-tx_4_1hi7ny014b69s4-fill" data-item-order="0" transform="translate(591.56640625, 272)"><g id="tx_4_1hi7ny014b69s4-fill-merged" stroke="none" fill="#ba5de5" fill-opacity="1"><g><text style="font: 30px Roboto, sans-serif; white-space: pre;" transform="translate(20.43359375, 28)" font-size="30px" font-family="Roboto, sans-serif"><tspan x="-8.43" y="17.5" dominant-baseline="ideographic">4</tspan></text></g></g></g><g id="g-root-tx_4_1hi7ny014b69s4-stroke" data-item-order="0" transform="translate(591.56640625, 272)"></g><g id="g-root-tx_teameffi_1uux4hk14b6adc-fill" data-item-order="0" transform="translate(662, 266)"><g id="tx_teameffi_1uux4hk14b6adc-fill-merged" stroke="none" fill="#ba5de5" fill-opacity="1"><g><text style="font: 20px Roboto, sans-serif; white-space: pre;" transform="translate(10, 22)" font-size="20px" font-family="Roboto, sans-serif"><tspan x="2" y="11.5" dominant-baseline="ideographic">Team Efficiency</tspan></text></g></g></g><g id="g-root-tx_teameffi_1uux4hk14b6adc-stroke" data-item-order="0" transform="translate(662, 266)"></g><g id="g-root-tx_reducedi_1cvixvc14b7pjh-fill" data-item-order="0" transform="translate(82.5078125, 302)"><g id="tx_reducedi_1cvixvc14b7pjh-fill-merged" stroke="none" fill="#ffffff" fill-opacity="1"><g><text style="font: 15px Roboto, sans-serif; white-space: pre;" transform="translate(181.4921875, 19)" font-size="15px" font-family="Roboto, sans-serif"><tspan x="-169.49" y="8.5" dominant-baseline="ideographic">Reduced issue resolution</tspan></text></g></g></g><g id="g-root-tx_reducedi_1cvixvc14b7pjh-stroke" data-item-order="0" transform="translate(82.5078125, 302)"></g><g id="g-root-tx_fasterde_18eghko14b7o5l-fill" data-item-order="0" transform="translate(662, 302)"><g id="tx_fasterde_18eghko14b7o5l-fill-merged" stroke="none" fill="#ffffff" fill-opacity="1"><g><text style="font: 15px Roboto, sans-serif; white-space: pre;" transform="translate(10, 19)" font-size="15px" font-family="Roboto, sans-serif"><tspan x="2" y="8.5" dominant-baseline="ideographic">Faster design handoff</tspan></text></g></g></g><g id="g-root-tx_fasterde_18eghko14b7o5l-stroke" data-item-order="0" transform="translate(662, 302)"></g><g id="g-root-tx_usergrow_zkowl414b7nym-fill" data-item-order="0" transform="translate(92.1640625, 380)"><g id="tx_usergrow_zkowl414b7nym-fill-merged" stroke="none" fill="#de8431" fill-opacity="1"><g><text style="font: 20px Roboto, sans-serif; white-space: pre;" transform="translate(123.8359375, 22)" font-size="20px" font-family="Roboto, sans-serif"><tspan x="-111.84" y="11.5" dominant-baseline="ideographic">User Growth</tspan></text></g></g></g><g id="g-root-tx_usergrow_zkowl414b7nym-stroke" data-item-order="0" transform="translate(92.1640625, 380)"></g><g id="g-root-tx_1_4otlo814b6c5r-fill" data-item-order="0" transform="translate(255.56640625, 392)"><g id="tx_1_4otlo814b6c5r-fill-merged" stroke="none" fill="#de8431" fill-opacity="1"><g><text style="font: 30px Roboto, sans-serif; white-space: pre;" transform="translate(20.43359375, 28)" font-size="30px" font-family="Roboto, sans-serif"><tspan x="-8.43" y="17.5" dominant-baseline="ideographic">1</tspan></text></g></g></g><g id="g-root-tx_1_4otlo814b6c5r-stroke" data-item-order="0" transform="translate(255.56640625, 392)"></g><g id="g-root-tx_150kuser_htew3c14b7qbr-fill" data-item-order="0" transform="translate(35.84375, 416)"><g id="tx_150kuser_htew3c14b7qbr-fill-merged" stroke="none" fill="#ffffff" fill-opacity="1"><g><text style="font: 15px Roboto, sans-serif; white-space: pre;" transform="translate(180.15625, 19)" font-size="15px" font-family="Roboto, sans-serif"><tspan x="-168.16" y="8.5" dominant-baseline="ideographic">150K+ users in 4 months</tspan></text></g></g></g><g id="g-root-tx_150kuser_htew3c14b7qbr-stroke" data-item-order="0" transform="translate(35.84375, 416)"></g><g id="g-root-tx_conversa_1ut1p8814b6bcz-fill" data-item-order="0" transform="translate(387.6953125, 590)"><g id="tx_conversa_1ut1p8814b6bcz-fill-merged" stroke="none" fill="#1eabda" fill-opacity="1"><g><text style="font: 20px Roboto, sans-serif; white-space: pre;" transform="translate(80.3046875, 34)" font-size="20px" font-family="Roboto, sans-serif"><tspan x="-68.3" y="-0.5" dominant-baseline="ideographic">Conversational </tspan><tspan x="-10.95" y="23.5" dominant-baseline="ideographic">AI</tspan></text></g></g></g><g id="g-root-tx_conversa_1ut1p8814b6bcz-stroke" data-item-order="0" transform="translate(387.6953125, 590)"></g></g></g></svg>