<?xml version="1.0" encoding="utf-8" standalone="yes"?>
<!DOCTYPE svg PUBLIC "-//W3C//DTD SVG 1.1//EN" "http://www.w3.org/Graphics/SVG/1.1/DTD/svg11.dtd">
<svg style="fill:none;stroke:none;fill-rule:evenodd;clip-rule:evenodd;stroke-linecap:round;stroke-linejoin:round;stroke-miterlimit:1.5;" version="1.1" xmlns="http://www.w3.org/2000/svg" xmlns:xlink="http://www.w3.org/1999/xlink" width="624" height="702" viewBox="0 0 624 702"><style class="text-font-style fontImports" data-font-family="Roboto">@import url(https://fonts.googleapis.com/css2?family=Roboto:wght@400;700&amp;amp;display=block);
svg{background-color:transparent!important}
.t-dark{fill:#484848}.s-dark{stroke:#484848;stroke-width:2;stroke-opacity:1}svg.dark .t-dark{fill:#c0bdb8}svg.dark .s-dark{stroke:#c0bdb8}@media(prefers-color-scheme:dark){svg:not(.light) .t-dark{fill:#c0bdb8}svg:not(.light) .s-dark{stroke:#c0bdb8}}</style><g id="items" style="isolation: isolate"><g id="blend" style="mix-blend-mode: normal"><g id="g-root-cp_1_lines-1_18lxkhk1730tfw-fill" data-item-order="-334495" transform="translate(14, 116.0400390625)"></g><g id="g-root-cp_1_lines-1_18lxkhk1730tfw-stroke" data-item-order="-334495" transform="translate(14, 116.0400390625)"><g id="cp_1_lines-1_18lxkhk1730tfw-stroke" fill="none" stroke-linecap="round" stroke-linejoin="round" stroke-miterlimit="4" stroke="#3cc583" stroke-width="2" stroke-opacity="1"><g><path d="M 274 10C 280.6274 10 286 15.3726 286 22M 10 22L 10 418M 286 418L 286 22M 274 430L 22 430M 22 10L 274 10M 10 22C 10 15.3726 15.3726 10 22 10M 22 430C 15.3726 430 10 424.6274 10 418M 274 430C 280.6274 430 286 424.6274 286 418"></path></g></g></g><g id="g-root-cp_1_solid_1_less_or_equal_vah2481730v0t-fill" data-item-order="-334451" transform="translate(38, 248.0400390625)"></g><g id="g-root-cp_1_solid_1_less_or_equal_vah2481730v0t-stroke" data-item-order="-334451" transform="translate(38, 248.0400390625)"><g id="cp_1_solid_1_less_or_equal_vah2481730v0t-stroke" fill="none" stroke-linecap="round" stroke-linejoin="round" stroke-miterlimit="4" stroke="#3cc583" stroke-width="2" stroke-opacity="1"><g><path d=""></path></g></g></g><g id="g-root-cp_1_hollow_1_greater_qva12w1730sna-fill" data-item-order="-334447" transform="translate(38, 242.0400390625)"></g><g id="g-root-cp_1_hollow_1_greater_qva12w1730sna-stroke" data-item-order="-334447" transform="translate(38, 242.0400390625)"><g id="cp_1_hollow_1_greater_qva12w1730sna-stroke" fill="none" stroke-linecap="round" stroke-linejoin="round" stroke-miterlimit="4" class="s-dark" stroke-width="2" stroke-opacity="1"><g><path d="M 16 226C 19.313709 226.000006 22 228.686298 22 232.000006C 22 235.313715 19.313709 238.000006 16 238.000006C 12.686292 238.000006 10 235.313715 10 232.000006C 10 228.686298 12.686292 226.000006 16 226.000006M 40 226C 43.313709 226.000006 46.000001 228.686298 46.000001 232.000006C 46.000001 235.313715 43.313709 238.000006 40.000001 238.000006C 36.686292 238.000006 34.000001 235.313715 34.000001 232.000006C 34.000001 228.686298 36.686292 226.000006 40.000001 226.000006M 64 226C 67.31371 226.000006 70.000002 228.686298 70.000002 232.000006C 70.000002 235.313715 67.31371 238.000006 64.000002 238.000006C 60.686293 238.000006 58.000002 235.313715 58.000002 232.000006C 58.000002 228.686298 60.686293 226.000006 64.000002 226.000006M 88 226C 91.313711 226.000006 94.000002 228.686298 94.000002 232.000006C 94.000002 235.313715 91.313711 238.000006 88.000002 238.000006C 84.686294 238.000006 82.000002 235.313715 82.000002 232.000006C 82.000002 228.686298 84.686294 226.000006 88.000002 226.000006M 112 226C 115.313712 226.000006 118.000003 228.686298 118.000003 232.000006C 118.000003 235.313715 115.313712 238.000006 112.000003 238.000006C 108.686295 238.000006 106.000003 235.313715 106.000003 232.000006C 106.000003 228.686298 108.686295 226.000006 112.000003 226.000006M 136 226C 139.313712 226.000006 142.000004 228.686298 142.000004 232.000006C 142.000004 235.313715 139.313712 238.000006 136.000004 238.000006C 132.686295 238.000006 130.000004 235.313715 130.000004 232.000006C 130.000004 228.686298 132.686295 226.000006 136.000004 226.000006M 160 226C 163.313713 226.000006 166.000004 228.686298 166.000004 232.000006C 166.000004 235.313715 163.313713 238.000006 160.000004 238.000006C 156.686296 238.000006 154.000004 235.313715 154.000004 232.000006C 154.000004 228.686298 156.686296 226.000006 160.000004 226.000006M 184 226C 187.313714 226.000006 190.000005 228.686298 190.000005 232.000006C 190.000005 235.313715 187.313714 238.000006 184.000005 238.000006C 180.686297 238.000006 178.000005 235.313715 178.000005 232.000006C 178.000005 228.686298 180.686297 226.000006 184.000005 226.000006M 208 226C 211.313714 226.000006 214.000006 228.686298 214.000006 232.000006C 214.000006 235.313715 211.313714 238.000006 208.000006 238.000006C 204.686297 238.000006 202.000006 235.313715 202.000006 232.000006C 202.000006 228.686298 204.686297 226.000006 208.000006 226.000006M 232 226C 235.313715 226.000006 238.000007 228.686298 238.000007 232.000006C 238.000007 235.313715 235.313715 238.000006 232.000007 238.000006C 228.686298 238.000006 226.000007 235.313715 226.000007 232.000006C 226.000007 228.686298 228.686298 226.000006 232.000007 226.000006M 16 202C 19.313709 202.000006 22 204.686297 22 208.000006C 22 211.313714 19.313709 214.000006 16 214.000006C 12.686292 214.000006 10 211.313714 10 208.000006C 10 204.686297 12.686292 202.000006 16 202.000006M 40 202C 43.313709 202.000006 46.000001 204.686297 46.000001 208.000006C 46.000001 211.313714 43.313709 214.000006 40.000001 214.000006C 36.686292 214.000006 34.000001 211.313714 34.000001 208.000006C 34.000001 204.686297 36.686292 202.000006 40.000001 202.000006M 64 202C 67.31371 202.000006 70.000002 204.686297 70.000002 208.000006C 70.000002 211.313714 67.31371 214.000006 64.000002 214.000006C 60.686293 214.000006 58.000002 211.313714 58.000002 208.000006C 58.000002 204.686297 60.686293 202.000006 64.000002 202.000006M 88 202C 91.313711 202.000006 94.000002 204.686297 94.000002 208.000006C 94.000002 211.313714 91.313711 214.000006 88.000002 214.000006C 84.686294 214.000006 82.000002 211.313714 82.000002 208.000006C 82.000002 204.686297 84.686294 202.000006 88.000002 202.000006M 112 202C 115.313712 202.000006 118.000003 204.686297 118.000003 208.000006C 118.000003 211.313714 115.313712 214.000006 112.000003 214.000006C 108.686295 214.000006 106.000003 211.313714 106.000003 208.000006C 106.000003 204.686297 108.686295 202.000006 112.000003 202.000006M 136 202C 139.313712 202.000006 142.000004 204.686297 142.000004 208.000006C 142.000004 211.313714 139.313712 214.000006 136.000004 214.000006C 132.686295 214.000006 130.000004 211.313714 130.000004 208.000006C 130.000004 204.686297 132.686295 202.000006 136.000004 202.000006M 160 202C 163.313713 202.000006 166.000004 204.686297 166.000004 208.000006C 166.000004 211.313714 163.313713 214.000006 160.000004 214.000006C 156.686296 214.000006 154.000004 211.313714 154.000004 208.000006C 154.000004 204.686297 156.686296 202.000006 160.000004 202.000006M 184 202C 187.313714 202.000006 190.000005 204.686297 190.000005 208.000006C 190.000005 211.313714 187.313714 214.000006 184.000005 214.000006C 180.686297 214.000006 178.000005 211.313714 178.000005 208.000006C 178.000005 204.686297 180.686297 202.000006 184.000005 202.000006M 208 202C 211.313714 202.000006 214.000006 204.686297 214.000006 208.000006C 214.000006 211.313714 211.313714 214.000006 208.000006 214.000006C 204.686297 214.000006 202.000006 211.313714 202.000006 208.000006C 202.000006 204.686297 204.686297 202.000006 208.000006 202.000006M 232 202C 235.313715 202.000006 238.000007 204.686297 238.000007 208.000006C 238.000007 211.313714 235.313715 214.000006 232.000007 214.000006C 228.686298 214.000006 226.000007 211.313714 226.000007 208.000006C 226.000007 204.686297 228.686298 202.000006 232.000007 202.000006M 16 178C 19.313709 178.000005 22 180.686297 22 184.000005C 22 187.313714 19.313709 190.000005 16 190.000005C 12.686292 190.000005 10 187.313714 10 184.000005C 10 180.686297 12.686292 178.000005 16 178.000005M 40 178C 43.313709 178.000005 46.000001 180.686297 46.000001 184.000005C 46.000001 187.313714 43.313709 190.000005 40.000001 190.000005C 36.686292 190.000005 34.000001 187.313714 34.000001 184.000005C 34.000001 180.686297 36.686292 178.000005 40.000001 178.000005M 64 178C 67.31371 178.000005 70.000002 180.686297 70.000002 184.000005C 70.000002 187.313714 67.31371 190.000005 64.000002 190.000005C 60.686293 190.000005 58.000002 187.313714 58.000002 184.000005C 58.000002 180.686297 60.686293 178.000005 64.000002 178.000005M 88 178C 91.313711 178.000005 94.000002 180.686297 94.000002 184.000005C 94.000002 187.313714 91.313711 190.000005 88.000002 190.000005C 84.686294 190.000005 82.000002 187.313714 82.000002 184.000005C 82.000002 180.686297 84.686294 178.000005 88.000002 178.000005M 112 178C 115.313712 178.000005 118.000003 180.686297 118.000003 184.000005C 118.000003 187.313714 115.313712 190.000005 112.000003 190.000005C 108.686295 190.000005 106.000003 187.313714 106.000003 184.000005C 106.000003 180.686297 108.686295 178.000005 112.000003 178.000005M 136 178C 139.313712 178.000005 142.000004 180.686297 142.000004 184.000005C 142.000004 187.313714 139.313712 190.000005 136.000004 190.000005C 132.686295 190.000005 130.000004 187.313714 130.000004 184.000005C 130.000004 180.686297 132.686295 178.000005 136.000004 178.000005M 160 178C 163.313713 178.000005 166.000004 180.686297 166.000004 184.000005C 166.000004 187.313714 163.313713 190.000005 160.000004 190.000005C 156.686296 190.000005 154.000004 187.313714 154.000004 184.000005C 154.000004 180.686297 156.686296 178.000005 160.000004 178.000005M 184 178C 187.313714 178.000005 190.000005 180.686297 190.000005 184.000005C 190.000005 187.313714 187.313714 190.000005 184.000005 190.000005C 180.686297 190.000005 178.000005 187.313714 178.000005 184.000005C 178.000005 180.686297 180.686297 178.000005 184.000005 178.000005M 208 178C 211.313714 178.000005 214.000006 180.686297 214.000006 184.000005C 214.000006 187.313714 211.313714 190.000005 208.000006 190.000005C 204.686297 190.000005 202.000006 187.313714 202.000006 184.000005C 202.000006 180.686297 204.686297 178.000005 208.000006 178.000005M 232 178C 235.313715 178.000005 238.000007 180.686297 238.000007 184.000005C 238.000007 187.313714 235.313715 190.000005 232.000007 190.000005C 228.686298 190.000005 226.000007 187.313714 226.000007 184.000005C 226.000007 180.686297 228.686298 178.000005 232.000007 178.000005M 16 154C 19.313709 154.000004 22 156.686296 22 160.000004C 22 163.313713 19.313709 166.000004 16 166.000004C 12.686292 166.000004 10 163.313713 10 160.000004C 10 156.686296 12.686292 154.000004 16 154.000004M 40 154C 43.313709 154.000004 46.000001 156.686296 46.000001 160.000004C 46.000001 163.313713 43.313709 166.000004 40.000001 166.000004C 36.686292 166.000004 34.000001 163.313713 34.000001 160.000004C 34.000001 156.686296 36.686292 154.000004 40.000001 154.000004M 64 154C 67.31371 154.000004 70.000002 156.686296 70.000002 160.000004C 70.000002 163.313713 67.31371 166.000004 64.000002 166.000004C 60.686293 166.000004 58.000002 163.313713 58.000002 160.000004C 58.000002 156.686296 60.686293 154.000004 64.000002 154.000004M 88 154C 91.313711 154.000004 94.000002 156.686296 94.000002 160.000004C 94.000002 163.313713 91.313711 166.000004 88.000002 166.000004C 84.686294 166.000004 82.000002 163.313713 82.000002 160.000004C 82.000002 156.686296 84.686294 154.000004 88.000002 154.000004M 112 154C 115.313712 154.000004 118.000003 156.686296 118.000003 160.000004C 118.000003 163.313713 115.313712 166.000004 112.000003 166.000004C 108.686295 166.000004 106.000003 163.313713 106.000003 160.000004C 106.000003 156.686296 108.686295 154.000004 112.000003 154.000004M 136 154C 139.313712 154.000004 142.000004 156.686296 142.000004 160.000004C 142.000004 163.313713 139.313712 166.000004 136.000004 166.000004C 132.686295 166.000004 130.000004 163.313713 130.000004 160.000004C 130.000004 156.686296 132.686295 154.000004 136.000004 154.000004M 160 154C 163.313713 154.000004 166.000004 156.686296 166.000004 160.000004C 166.000004 163.313713 163.313713 166.000004 160.000004 166.000004C 156.686296 166.000004 154.000004 163.313713 154.000004 160.000004C 154.000004 156.686296 156.686296 154.000004 160.000004 154.000004M 184 154C 187.313714 154.000004 190.000005 156.686296 190.000005 160.000004C 190.000005 163.313713 187.313714 166.000004 184.000005 166.000004C 180.686297 166.000004 178.000005 163.313713 178.000005 160.000004C 178.000005 156.686296 180.686297 154.000004 184.000005 154.000004M 208 154C 211.313714 154.000004 214.000006 156.686296 214.000006 160.000004C 214.000006 163.313713 211.313714 166.000004 208.000006 166.000004C 204.686297 166.000004 202.000006 163.313713 202.000006 160.000004C 202.000006 156.686296 204.686297 154.000004 208.000006 154.000004M 232 154C 235.313715 154.000004 238.000007 156.686296 238.000007 160.000004C 238.000007 163.313713 235.313715 166.000004 232.000007 166.000004C 228.686298 166.000004 226.000007 163.313713 226.000007 160.000004C 226.000007 156.686296 228.686298 154.000004 232.000007 154.000004M 16 130C 19.313709 130.000004 22 132.686295 22 136.000004C 22 139.313712 19.313709 142.000004 16 142.000004C 12.686292 142.000004 10 139.313712 10 136.000004C 10 132.686295 12.686292 130.000004 16 130.000004M 40 130C 43.313709 130.000004 46.000001 132.686295 46.000001 136.000004C 46.000001 139.313712 43.313709 142.000004 40.000001 142.000004C 36.686292 142.000004 34.000001 139.313712 34.000001 136.000004C 34.000001 132.686295 36.686292 130.000004 40.000001 130.000004M 64 130C 67.31371 130.000004 70.000002 132.686295 70.000002 136.000004C 70.000002 139.313712 67.31371 142.000004 64.000002 142.000004C 60.686293 142.000004 58.000002 139.313712 58.000002 136.000004C 58.000002 132.686295 60.686293 130.000004 64.000002 130.000004M 88 130C 91.313711 130.000004 94.000002 132.686295 94.000002 136.000004C 94.000002 139.313712 91.313711 142.000004 88.000002 142.000004C 84.686294 142.000004 82.000002 139.313712 82.000002 136.000004C 82.000002 132.686295 84.686294 130.000004 88.000002 130.000004M 112 130C 115.313712 130.000004 118.000003 132.686295 118.000003 136.000004C 118.000003 139.313712 115.313712 142.000004 112.000003 142.000004C 108.686295 142.000004 106.000003 139.313712 106.000003 136.000004C 106.000003 132.686295 108.686295 130.000004 112.000003 130.000004M 136 130C 139.313712 130.000004 142.000004 132.686295 142.000004 136.000004C 142.000004 139.313712 139.313712 142.000004 136.000004 142.000004C 132.686295 142.000004 130.000004 139.313712 130.000004 136.000004C 130.000004 132.686295 132.686295 130.000004 136.000004 130.000004M 160 130C 163.313713 130.000004 166.000004 132.686295 166.000004 136.000004C 166.000004 139.313712 163.313713 142.000004 160.000004 142.000004C 156.686296 142.000004 154.000004 139.313712 154.000004 136.000004C 154.000004 132.686295 156.686296 130.000004 160.000004 130.000004M 184 130C 187.313714 130.000004 190.000005 132.686295 190.000005 136.000004C 190.000005 139.313712 187.313714 142.000004 184.000005 142.000004C 180.686297 142.000004 178.000005 139.313712 178.000005 136.000004C 178.000005 132.686295 180.686297 130.000004 184.000005 130.000004M 208 130C 211.313714 130.000004 214.000006 132.686295 214.000006 136.000004C 214.000006 139.313712 211.313714 142.000004 208.000006 142.000004C 204.686297 142.000004 202.000006 139.313712 202.000006 136.000004C 202.000006 132.686295 204.686297 130.000004 208.000006 130.000004M 232 130C 235.313715 130.000004 238.000007 132.686295 238.000007 136.000004C 238.000007 139.313712 235.313715 142.000004 232.000007 142.000004C 228.686298 142.000004 226.000007 139.313712 226.000007 136.000004C 226.000007 132.686295 228.686298 130.000004 232.000007 130.000004M 16 106C 19.313709 106.000003 22 108.686294 22 112.000003C 22 115.313711 19.313709 118.000003 16 118.000003C 12.686292 118.000003 10 115.313711 10 112.000003C 10 108.686294 12.686292 106.000003 16 106.000003M 40 106C 43.313709 106.000003 46.000001 108.686294 46.000001 112.000003C 46.000001 115.313711 43.313709 118.000003 40.000001 118.000003C 36.686292 118.000003 34.000001 115.313711 34.000001 112.000003C 34.000001 108.686294 36.686292 106.000003 40.000001 106.000003M 64 106C 67.31371 106.000003 70.000002 108.686294 70.000002 112.000003C 70.000002 115.313711 67.31371 118.000003 64.000002 118.000003C 60.686293 118.000003 58.000002 115.313711 58.000002 112.000003C 58.000002 108.686294 60.686293 106.000003 64.000002 106.000003M 88 106C 91.313711 106.000003 94.000002 108.686294 94.000002 112.000003C 94.000002 115.313711 91.313711 118.000003 88.000002 118.000003C 84.686294 118.000003 82.000002 115.313711 82.000002 112.000003C 82.000002 108.686294 84.686294 106.000003 88.000002 106.000003M 112 106C 115.313712 106.000003 118.000003 108.686294 118.000003 112.000003C 118.000003 115.313711 115.313712 118.000003 112.000003 118.000003C 108.686295 118.000003 106.000003 115.313711 106.000003 112.000003C 106.000003 108.686294 108.686295 106.000003 112.000003 106.000003M 136 106C 139.313712 106.000003 142.000004 108.686294 142.000004 112.000003C 142.000004 115.313711 139.313712 118.000003 136.000004 118.000003C 132.686295 118.000003 130.000004 115.313711 130.000004 112.000003C 130.000004 108.686294 132.686295 106.000003 136.000004 106.000003M 160 106C 163.313713 106.000003 166.000004 108.686294 166.000004 112.000003C 166.000004 115.313711 163.313713 118.000003 160.000004 118.000003C 156.686296 118.000003 154.000004 115.313711 154.000004 112.000003C 154.000004 108.686294 156.686296 106.000003 160.000004 106.000003M 184 106C 187.313714 106.000003 190.000005 108.686294 190.000005 112.000003C 190.000005 115.313711 187.313714 118.000003 184.000005 118.000003C 180.686297 118.000003 178.000005 115.313711 178.000005 112.000003C 178.000005 108.686294 180.686297 106.000003 184.000005 106.000003M 208 106C 211.313714 106.000003 214.000006 108.686294 214.000006 112.000003C 214.000006 115.313711 211.313714 118.000003 208.000006 118.000003C 204.686297 118.000003 202.000006 115.313711 202.000006 112.000003C 202.000006 108.686294 204.686297 106.000003 208.000006 106.000003M 232 106C 235.313715 106.000003 238.000007 108.686294 238.000007 112.000003C 238.000007 115.313711 235.313715 118.000003 232.000007 118.000003C 228.686298 118.000003 226.000007 115.313711 226.000007 112.000003C 226.000007 108.686294 228.686298 106.000003 232.000007 106.000003M 16 82C 19.313709 82.000002 22 84.686294 22 88.000002C 22 91.313711 19.313709 94.000002 16 94.000002C 12.686292 94.000002 10 91.313711 10 88.000002C 10 84.686294 12.686292 82.000002 16 82.000002M 40 82C 43.313709 82.000002 46.000001 84.686294 46.000001 88.000002C 46.000001 91.313711 43.313709 94.000002 40.000001 94.000002C 36.686292 94.000002 34.000001 91.313711 34.000001 88.000002C 34.000001 84.686294 36.686292 82.000002 40.000001 82.000002M 64 82C 67.31371 82.000002 70.000002 84.686294 70.000002 88.000002C 70.000002 91.313711 67.31371 94.000002 64.000002 94.000002C 60.686293 94.000002 58.000002 91.313711 58.000002 88.000002C 58.000002 84.686294 60.686293 82.000002 64.000002 82.000002M 88 82C 91.313711 82.000002 94.000002 84.686294 94.000002 88.000002C 94.000002 91.313711 91.313711 94.000002 88.000002 94.000002C 84.686294 94.000002 82.000002 91.313711 82.000002 88.000002C 82.000002 84.686294 84.686294 82.000002 88.000002 82.000002M 112 82C 115.313712 82.000002 118.000003 84.686294 118.000003 88.000002C 118.000003 91.313711 115.313712 94.000002 112.000003 94.000002C 108.686295 94.000002 106.000003 91.313711 106.000003 88.000002C 106.000003 84.686294 108.686295 82.000002 112.000003 82.000002M 136 82C 139.313712 82.000002 142.000004 84.686294 142.000004 88.000002C 142.000004 91.313711 139.313712 94.000002 136.000004 94.000002C 132.686295 94.000002 130.000004 91.313711 130.000004 88.000002C 130.000004 84.686294 132.686295 82.000002 136.000004 82.000002M 160 82C 163.313713 82.000002 166.000004 84.686294 166.000004 88.000002C 166.000004 91.313711 163.313713 94.000002 160.000004 94.000002C 156.686296 94.000002 154.000004 91.313711 154.000004 88.000002C 154.000004 84.686294 156.686296 82.000002 160.000004 82.000002M 184 82C 187.313714 82.000002 190.000005 84.686294 190.000005 88.000002C 190.000005 91.313711 187.313714 94.000002 184.000005 94.000002C 180.686297 94.000002 178.000005 91.313711 178.000005 88.000002C 178.000005 84.686294 180.686297 82.000002 184.000005 82.000002M 208 82C 211.313714 82.000002 214.000006 84.686294 214.000006 88.000002C 214.000006 91.313711 211.313714 94.000002 208.000006 94.000002C 204.686297 94.000002 202.000006 91.313711 202.000006 88.000002C 202.000006 84.686294 204.686297 82.000002 208.000006 82.000002M 232 82C 235.313715 82.000002 238.000007 84.686294 238.000007 88.000002C 238.000007 91.313711 235.313715 94.000002 232.000007 94.000002C 228.686298 94.000002 226.000007 91.313711 226.000007 88.000002C 226.000007 84.686294 228.686298 82.000002 232.000007 82.000002M 16 58C 19.313709 58.000001 22 60.686293 22 64.000001C 22 67.31371 19.313709 70.000001 16 70.000001C 12.686292 70.000001 10 67.31371 10 64.000001C 10 60.686293 12.686292 58.000001 16 58.000001M 40 58C 43.313709 58.000001 46.000001 60.686293 46.000001 64.000001C 46.000001 67.31371 43.313709 70.000001 40.000001 70.000001C 36.686292 70.000001 34.000001 67.31371 34.000001 64.000001C 34.000001 60.686293 36.686292 58.000001 40.000001 58.000001M 64 58C 67.31371 58.000001 70.000002 60.686293 70.000002 64.000001C 70.000002 67.31371 67.31371 70.000001 64.000002 70.000001C 60.686293 70.000001 58.000002 67.31371 58.000002 64.000001C 58.000002 60.686293 60.686293 58.000001 64.000002 58.000001M 88 58C 91.313711 58.000001 94.000002 60.686293 94.000002 64.000001C 94.000002 67.31371 91.313711 70.000001 88.000002 70.000001C 84.686294 70.000001 82.000002 67.31371 82.000002 64.000001C 82.000002 60.686293 84.686294 58.000001 88.000002 58.000001M 112 58C 115.313712 58.000001 118.000003 60.686293 118.000003 64.000001C 118.000003 67.31371 115.313712 70.000001 112.000003 70.000001C 108.686295 70.000001 106.000003 67.31371 106.000003 64.000001C 106.000003 60.686293 108.686295 58.000001 112.000003 58.000001M 136 58C 139.313712 58.000001 142.000004 60.686293 142.000004 64.000001C 142.000004 67.31371 139.313712 70.000001 136.000004 70.000001C 132.686295 70.000001 130.000004 67.31371 130.000004 64.000001C 130.000004 60.686293 132.686295 58.000001 136.000004 58.000001M 160 58C 163.313713 58.000001 166.000004 60.686293 166.000004 64.000001C 166.000004 67.31371 163.313713 70.000001 160.000004 70.000001C 156.686296 70.000001 154.000004 67.31371 154.000004 64.000001C 154.000004 60.686293 156.686296 58.000001 160.000004 58.000001M 184 58C 187.313714 58.000001 190.000005 60.686293 190.000005 64.000001C 190.000005 67.31371 187.313714 70.000001 184.000005 70.000001C 180.686297 70.000001 178.000005 67.31371 178.000005 64.000001C 178.000005 60.686293 180.686297 58.000001 184.000005 58.000001M 208 58C 211.313714 58.000001 214.000006 60.686293 214.000006 64.000001C 214.000006 67.31371 211.313714 70.000001 208.000006 70.000001C 204.686297 70.000001 202.000006 67.31371 202.000006 64.000001C 202.000006 60.686293 204.686297 58.000001 208.000006 58.000001M 232 58C 235.313715 58.000001 238.000007 60.686293 238.000007 64.000001C 238.000007 67.31371 235.313715 70.000001 232.000007 70.000001C 228.686298 70.000001 226.000007 67.31371 226.000007 64.000001C 226.000007 60.686293 228.686298 58.000001 232.000007 58.000001M 16 34C 19.313709 34.000001 22 36.686292 22 40.000001C 22 43.313709 19.313709 46.000001 16 46.000001C 12.686292 46.000001 10 43.313709 10 40.000001C 10 36.686292 12.686292 34.000001 16 34.000001M 40 34C 43.313709 34.000001 46.000001 36.686292 46.000001 40.000001C 46.000001 43.313709 43.313709 46.000001 40.000001 46.000001C 36.686292 46.000001 34.000001 43.313709 34.000001 40.000001C 34.000001 36.686292 36.686292 34.000001 40.000001 34.000001M 64 34C 67.31371 34.000001 70.000002 36.686292 70.000002 40.000001C 70.000002 43.313709 67.31371 46.000001 64.000002 46.000001C 60.686293 46.000001 58.000002 43.313709 58.000002 40.000001C 58.000002 36.686292 60.686293 34.000001 64.000002 34.000001M 88 34C 91.313711 34.000001 94.000002 36.686292 94.000002 40.000001C 94.000002 43.313709 91.313711 46.000001 88.000002 46.000001C 84.686294 46.000001 82.000002 43.313709 82.000002 40.000001C 82.000002 36.686292 84.686294 34.000001 88.000002 34.000001M 112 34C 115.313712 34.000001 118.000003 36.686292 118.000003 40.000001C 118.000003 43.313709 115.313712 46.000001 112.000003 46.000001C 108.686295 46.000001 106.000003 43.313709 106.000003 40.000001C 106.000003 36.686292 108.686295 34.000001 112.000003 34.000001M 136 34C 139.313712 34.000001 142.000004 36.686292 142.000004 40.000001C 142.000004 43.313709 139.313712 46.000001 136.000004 46.000001C 132.686295 46.000001 130.000004 43.313709 130.000004 40.000001C 130.000004 36.686292 132.686295 34.000001 136.000004 34.000001M 160 34C 163.313713 34.000001 166.000004 36.686292 166.000004 40.000001C 166.000004 43.313709 163.313713 46.000001 160.000004 46.000001C 156.686296 46.000001 154.000004 43.313709 154.000004 40.000001C 154.000004 36.686292 156.686296 34.000001 160.000004 34.000001M 184 34C 187.313714 34.000001 190.000005 36.686292 190.000005 40.000001C 190.000005 43.313709 187.313714 46.000001 184.000005 46.000001C 180.686297 46.000001 178.000005 43.313709 178.000005 40.000001C 178.000005 36.686292 180.686297 34.000001 184.000005 34.000001M 208 34C 211.313714 34.000001 214.000006 36.686292 214.000006 40.000001C 214.000006 43.313709 211.313714 46.000001 208.000006 46.000001C 204.686297 46.000001 202.000006 43.313709 202.000006 40.000001C 202.000006 36.686292 204.686297 34.000001 208.000006 34.000001M 232 34C 235.313715 34.000001 238.000007 36.686292 238.000007 40.000001C 238.000007 43.313709 235.313715 46.000001 232.000007 46.000001C 228.686298 46.000001 226.000007 43.313709 226.000007 40.000001C 226.000007 36.686292 228.686298 34.000001 232.000007 34.000001M 16 10C 19.313709 10 22 12.686292 22 16C 22 19.313708 19.313709 22 16 22C 12.686292 22 10 19.313708 10 16C 10 12.686292 12.686292 10 16 10M 40 10C 43.313709 10 46.000001 12.686292 46.000001 16C 46.000001 19.313708 43.313709 22 40.000001 22C 36.686292 22 34.000001 19.313708 34.000001 16C 34.000001 12.686292 36.686292 10 40.000001 10M 64 10C 67.31371 10 70.000002 12.686292 70.000002 16C 70.000002 19.313708 67.31371 22 64.000002 22C 60.686293 22 58.000002 19.313708 58.000002 16C 58.000002 12.686292 60.686293 10 64.000002 10M 88 10C 91.313711 10 94.000002 12.686292 94.000002 16C 94.000002 19.313708 91.313711 22 88.000002 22C 84.686294 22 82.000002 19.313708 82.000002 16C 82.000002 12.686292 84.686294 10 88.000002 10M 112 10C 115.313712 10 118.000003 12.686292 118.000003 16C 118.000003 19.313708 115.313712 22 112.000003 22C 108.686295 22 106.000003 19.313708 106.000003 16C 106.000003 12.686292 108.686295 10 112.000003 10M 136 10C 139.313712 10 142.000004 12.686292 142.000004 16C 142.000004 19.313708 139.313712 22 136.000004 22C 132.686295 22 130.000004 19.313708 130.000004 16C 130.000004 12.686292 132.686295 10 136.000004 10M 160 10C 163.313713 10 166.000004 12.686292 166.000004 16C 166.000004 19.313708 163.313713 22 160.000004 22C 156.686296 22 154.000004 19.313708 154.000004 16C 154.000004 12.686292 156.686296 10 160.000004 10M 184 10C 187.313714 10 190.000005 12.686292 190.000005 16C 190.000005 19.313708 187.313714 22 184.000005 22C 180.686297 22 178.000005 19.313708 178.000005 16C 178.000005 12.686292 180.686297 10 184.000005 10M 208 10C 211.313714 10 214.000006 12.686292 214.000006 16C 214.000006 19.313708 211.313714 22 208.000006 22C 204.686297 22 202.000006 19.313708 202.000006 16C 202.000006 12.686292 204.686297 10 208.000006 10M 232 10C 235.313715 10 238.000007 12.686292 238.000007 16C 238.000007 19.313708 235.313715 22 232.000007 22C 228.686298 22 226.000007 19.313708 226.000007 16C 226.000007 12.686292 228.686298 10 232.000007 10"></path></g></g></g><g id="g-root-cp_2_lines-2_4o6igo1730v0v-fill" data-item-order="-334433" transform="translate(314, 116.0400390625)"></g><g id="g-root-cp_2_lines-2_4o6igo1730v0v-stroke" data-item-order="-334433" transform="translate(314, 116.0400390625)"><g id="cp_2_lines-2_4o6igo1730v0v-stroke" fill="none" stroke-linecap="round" stroke-linejoin="round" stroke-miterlimit="4" stroke="#92bd39" stroke-width="2" stroke-opacity="1"><g><path d="M 274 10C 280.6274 10 286 15.3726 286 22M 10 22L 10 418M 286 418L 286 22M 274 430L 22 430M 22 10L 274 10M 10 22C 10 15.3726 15.3726 10 22 10M 22 430C 15.3726 430 10 424.6274 10 418M 274 430C 280.6274 430 286 424.6274 286 418"></path></g></g></g><g id="g-root-cp_2_solid_2_less_or_equal_1uua1a01730t8g-fill" data-item-order="-334389" transform="translate(338, 314.0400390625)"></g><g id="g-root-cp_2_solid_2_less_or_equal_1uua1a01730t8g-stroke" data-item-order="-334389" transform="translate(338, 314.0400390625)"><g id="cp_2_solid_2_less_or_equal_1uua1a01730t8g-stroke" fill="none" stroke-linecap="round" stroke-linejoin="round" stroke-miterlimit="4" stroke="#92bd39" stroke-width="2" stroke-opacity="1"><g><path d="M 16 154C 19.313709 154.000006 22 156.686298 22 160.000006C 22 163.313715 19.313709 166.000006 16 166.000006C 12.686292 166.000006 10 163.313715 10 160.000006C 10 156.686298 12.686292 154.000006 16 154.000006M 40 154C 43.313709 154.000006 46.000001 156.686298 46.000001 160.000006C 46.000001 163.313715 43.313709 166.000006 40.000001 166.000006C 36.686292 166.000006 34.000001 163.313715 34.000001 160.000006C 34.000001 156.686298 36.686292 154.000006 40.000001 154.000006M 64 154C 67.31371 154.000006 70.000002 156.686298 70.000002 160.000006C 70.000002 163.313715 67.31371 166.000006 64.000002 166.000006C 60.686293 166.000006 58.000002 163.313715 58.000002 160.000006C 58.000002 156.686298 60.686293 154.000006 64.000002 154.000006M 88 154C 91.313711 154.000006 94.000002 156.686298 94.000002 160.000006C 94.000002 163.313715 91.313711 166.000006 88.000002 166.000006C 84.686294 166.000006 82.000002 163.313715 82.000002 160.000006C 82.000002 156.686298 84.686294 154.000006 88.000002 154.000006M 112 154C 115.313712 154.000006 118.000003 156.686298 118.000003 160.000006C 118.000003 163.313715 115.313712 166.000006 112.000003 166.000006C 108.686295 166.000006 106.000003 163.313715 106.000003 160.000006C 106.000003 156.686298 108.686295 154.000006 112.000003 154.000006M 136 154C 139.313712 154.000006 142.000004 156.686298 142.000004 160.000006C 142.000004 163.313715 139.313712 166.000006 136.000004 166.000006C 132.686295 166.000006 130.000004 163.313715 130.000004 160.000006C 130.000004 156.686298 132.686295 154.000006 136.000004 154.000006M 160 154C 163.313713 154.000006 166.000004 156.686298 166.000004 160.000006C 166.000004 163.313715 163.313713 166.000006 160.000004 166.000006C 156.686296 166.000006 154.000004 163.313715 154.000004 160.000006C 154.000004 156.686298 156.686296 154.000006 160.000004 154.000006M 184 154C 187.313714 154.000006 190.000005 156.686298 190.000005 160.000006C 190.000005 163.313715 187.313714 166.000006 184.000005 166.000006C 180.686297 166.000006 178.000005 163.313715 178.000005 160.000006C 178.000005 156.686298 180.686297 154.000006 184.000005 154.000006M 208 154C 211.313714 154.000006 214.000006 156.686298 214.000006 160.000006C 214.000006 163.313715 211.313714 166.000006 208.000006 166.000006C 204.686297 166.000006 202.000006 163.313715 202.000006 160.000006C 202.000006 156.686298 204.686297 154.000006 208.000006 154.000006M 232 154C 235.313715 154.000006 238.000007 156.686298 238.000007 160.000006C 238.000007 163.313715 235.313715 166.000006 232.000007 166.000006C 228.686298 166.000006 226.000007 163.313715 226.000007 160.000006C 226.000007 156.686298 228.686298 154.000006 232.000007 154.000006M 16 130C 19.313709 130.000006 22 132.686297 22 136.000006C 22 139.313714 19.313709 142.000006 16 142.000006C 12.686292 142.000006 10 139.313714 10 136.000006C 10 132.686297 12.686292 130.000006 16 130.000006M 40 130C 43.313709 130.000006 46.000001 132.686297 46.000001 136.000006C 46.000001 139.313714 43.313709 142.000006 40.000001 142.000006C 36.686292 142.000006 34.000001 139.313714 34.000001 136.000006C 34.000001 132.686297 36.686292 130.000006 40.000001 130.000006M 64 130C 67.31371 130.000006 70.000002 132.686297 70.000002 136.000006C 70.000002 139.313714 67.31371 142.000006 64.000002 142.000006C 60.686293 142.000006 58.000002 139.313714 58.000002 136.000006C 58.000002 132.686297 60.686293 130.000006 64.000002 130.000006M 88 130C 91.313711 130.000006 94.000002 132.686297 94.000002 136.000006C 94.000002 139.313714 91.313711 142.000006 88.000002 142.000006C 84.686294 142.000006 82.000002 139.313714 82.000002 136.000006C 82.000002 132.686297 84.686294 130.000006 88.000002 130.000006M 112 130C 115.313712 130.000006 118.000003 132.686297 118.000003 136.000006C 118.000003 139.313714 115.313712 142.000006 112.000003 142.000006C 108.686295 142.000006 106.000003 139.313714 106.000003 136.000006C 106.000003 132.686297 108.686295 130.000006 112.000003 130.000006M 136 130C 139.313712 130.000006 142.000004 132.686297 142.000004 136.000006C 142.000004 139.313714 139.313712 142.000006 136.000004 142.000006C 132.686295 142.000006 130.000004 139.313714 130.000004 136.000006C 130.000004 132.686297 132.686295 130.000006 136.000004 130.000006M 160 130C 163.313713 130.000006 166.000004 132.686297 166.000004 136.000006C 166.000004 139.313714 163.313713 142.000006 160.000004 142.000006C 156.686296 142.000006 154.000004 139.313714 154.000004 136.000006C 154.000004 132.686297 156.686296 130.000006 160.000004 130.000006M 184 130C 187.313714 130.000006 190.000005 132.686297 190.000005 136.000006C 190.000005 139.313714 187.313714 142.000006 184.000005 142.000006C 180.686297 142.000006 178.000005 139.313714 178.000005 136.000006C 178.000005 132.686297 180.686297 130.000006 184.000005 130.000006M 208 130C 211.313714 130.000006 214.000006 132.686297 214.000006 136.000006C 214.000006 139.313714 211.313714 142.000006 208.000006 142.000006C 204.686297 142.000006 202.000006 139.313714 202.000006 136.000006C 202.000006 132.686297 204.686297 130.000006 208.000006 130.000006M 232 130C 235.313715 130.000006 238.000007 132.686297 238.000007 136.000006C 238.000007 139.313714 235.313715 142.000006 232.000007 142.000006C 228.686298 142.000006 226.000007 139.313714 226.000007 136.000006C 226.000007 132.686297 228.686298 130.000006 232.000007 130.000006M 16 106C 19.313709 106.000005 22 108.686297 22 112.000005C 22 115.313714 19.313709 118.000005 16 118.000005C 12.686292 118.000005 10 115.313714 10 112.000005C 10 108.686297 12.686292 106.000005 16 106.000005M 40 106C 43.313709 106.000005 46.000001 108.686297 46.000001 112.000005C 46.000001 115.313714 43.313709 118.000005 40.000001 118.000005C 36.686292 118.000005 34.000001 115.313714 34.000001 112.000005C 34.000001 108.686297 36.686292 106.000005 40.000001 106.000005M 64 106C 67.31371 106.000005 70.000002 108.686297 70.000002 112.000005C 70.000002 115.313714 67.31371 118.000005 64.000002 118.000005C 60.686293 118.000005 58.000002 115.313714 58.000002 112.000005C 58.000002 108.686297 60.686293 106.000005 64.000002 106.000005M 88 106C 91.313711 106.000005 94.000002 108.686297 94.000002 112.000005C 94.000002 115.313714 91.313711 118.000005 88.000002 118.000005C 84.686294 118.000005 82.000002 115.313714 82.000002 112.000005C 82.000002 108.686297 84.686294 106.000005 88.000002 106.000005M 112 106C 115.313712 106.000005 118.000003 108.686297 118.000003 112.000005C 118.000003 115.313714 115.313712 118.000005 112.000003 118.000005C 108.686295 118.000005 106.000003 115.313714 106.000003 112.000005C 106.000003 108.686297 108.686295 106.000005 112.000003 106.000005M 136 106C 139.313712 106.000005 142.000004 108.686297 142.000004 112.000005C 142.000004 115.313714 139.313712 118.000005 136.000004 118.000005C 132.686295 118.000005 130.000004 115.313714 130.000004 112.000005C 130.000004 108.686297 132.686295 106.000005 136.000004 106.000005M 160 106C 163.313713 106.000005 166.000004 108.686297 166.000004 112.000005C 166.000004 115.313714 163.313713 118.000005 160.000004 118.000005C 156.686296 118.000005 154.000004 115.313714 154.000004 112.000005C 154.000004 108.686297 156.686296 106.000005 160.000004 106.000005M 184 106C 187.313714 106.000005 190.000005 108.686297 190.000005 112.000005C 190.000005 115.313714 187.313714 118.000005 184.000005 118.000005C 180.686297 118.000005 178.000005 115.313714 178.000005 112.000005C 178.000005 108.686297 180.686297 106.000005 184.000005 106.000005M 208 106C 211.313714 106.000005 214.000006 108.686297 214.000006 112.000005C 214.000006 115.313714 211.313714 118.000005 208.000006 118.000005C 204.686297 118.000005 202.000006 115.313714 202.000006 112.000005C 202.000006 108.686297 204.686297 106.000005 208.000006 106.000005M 232 106C 235.313715 106.000005 238.000007 108.686297 238.000007 112.000005C 238.000007 115.313714 235.313715 118.000005 232.000007 118.000005C 228.686298 118.000005 226.000007 115.313714 226.000007 112.000005C 226.000007 108.686297 228.686298 106.000005 232.000007 106.000005M 16 82C 19.313709 82.000004 22 84.686296 22 88.000004C 22 91.313713 19.313709 94.000004 16 94.000004C 12.686292 94.000004 10 91.313713 10 88.000004C 10 84.686296 12.686292 82.000004 16 82.000004M 40 82C 43.313709 82.000004 46.000001 84.686296 46.000001 88.000004C 46.000001 91.313713 43.313709 94.000004 40.000001 94.000004C 36.686292 94.000004 34.000001 91.313713 34.000001 88.000004C 34.000001 84.686296 36.686292 82.000004 40.000001 82.000004M 64 82C 67.31371 82.000004 70.000002 84.686296 70.000002 88.000004C 70.000002 91.313713 67.31371 94.000004 64.000002 94.000004C 60.686293 94.000004 58.000002 91.313713 58.000002 88.000004C 58.000002 84.686296 60.686293 82.000004 64.000002 82.000004M 88 82C 91.313711 82.000004 94.000002 84.686296 94.000002 88.000004C 94.000002 91.313713 91.313711 94.000004 88.000002 94.000004C 84.686294 94.000004 82.000002 91.313713 82.000002 88.000004C 82.000002 84.686296 84.686294 82.000004 88.000002 82.000004M 112 82C 115.313712 82.000004 118.000003 84.686296 118.000003 88.000004C 118.000003 91.313713 115.313712 94.000004 112.000003 94.000004C 108.686295 94.000004 106.000003 91.313713 106.000003 88.000004C 106.000003 84.686296 108.686295 82.000004 112.000003 82.000004M 136 82C 139.313712 82.000004 142.000004 84.686296 142.000004 88.000004C 142.000004 91.313713 139.313712 94.000004 136.000004 94.000004C 132.686295 94.000004 130.000004 91.313713 130.000004 88.000004C 130.000004 84.686296 132.686295 82.000004 136.000004 82.000004M 160 82C 163.313713 82.000004 166.000004 84.686296 166.000004 88.000004C 166.000004 91.313713 163.313713 94.000004 160.000004 94.000004C 156.686296 94.000004 154.000004 91.313713 154.000004 88.000004C 154.000004 84.686296 156.686296 82.000004 160.000004 82.000004M 184 82C 187.313714 82.000004 190.000005 84.686296 190.000005 88.000004C 190.000005 91.313713 187.313714 94.000004 184.000005 94.000004C 180.686297 94.000004 178.000005 91.313713 178.000005 88.000004C 178.000005 84.686296 180.686297 82.000004 184.000005 82.000004M 208 82C 211.313714 82.000004 214.000006 84.686296 214.000006 88.000004C 214.000006 91.313713 211.313714 94.000004 208.000006 94.000004C 204.686297 94.000004 202.000006 91.313713 202.000006 88.000004C 202.000006 84.686296 204.686297 82.000004 208.000006 82.000004M 232 82C 235.313715 82.000004 238.000007 84.686296 238.000007 88.000004C 238.000007 91.313713 235.313715 94.000004 232.000007 94.000004C 228.686298 94.000004 226.000007 91.313713 226.000007 88.000004C 226.000007 84.686296 228.686298 82.000004 232.000007 82.000004M 16 58C 19.313709 58.000004 22 60.686295 22 64.000004C 22 67.313712 19.313709 70.000004 16 70.000004C 12.686292 70.000004 10 67.313712 10 64.000004C 10 60.686295 12.686292 58.000004 16 58.000004M 40 58C 43.313709 58.000004 46.000001 60.686295 46.000001 64.000004C 46.000001 67.313712 43.313709 70.000004 40.000001 70.000004C 36.686292 70.000004 34.000001 67.313712 34.000001 64.000004C 34.000001 60.686295 36.686292 58.000004 40.000001 58.000004M 64 58C 67.31371 58.000004 70.000002 60.686295 70.000002 64.000004C 70.000002 67.313712 67.31371 70.000004 64.000002 70.000004C 60.686293 70.000004 58.000002 67.313712 58.000002 64.000004C 58.000002 60.686295 60.686293 58.000004 64.000002 58.000004M 88 58C 91.313711 58.000004 94.000002 60.686295 94.000002 64.000004C 94.000002 67.313712 91.313711 70.000004 88.000002 70.000004C 84.686294 70.000004 82.000002 67.313712 82.000002 64.000004C 82.000002 60.686295 84.686294 58.000004 88.000002 58.000004M 112 58C 115.313712 58.000004 118.000003 60.686295 118.000003 64.000004C 118.000003 67.313712 115.313712 70.000004 112.000003 70.000004C 108.686295 70.000004 106.000003 67.313712 106.000003 64.000004C 106.000003 60.686295 108.686295 58.000004 112.000003 58.000004M 136 58C 139.313712 58.000004 142.000004 60.686295 142.000004 64.000004C 142.000004 67.313712 139.313712 70.000004 136.000004 70.000004C 132.686295 70.000004 130.000004 67.313712 130.000004 64.000004C 130.000004 60.686295 132.686295 58.000004 136.000004 58.000004M 160 58C 163.313713 58.000004 166.000004 60.686295 166.000004 64.000004C 166.000004 67.313712 163.313713 70.000004 160.000004 70.000004C 156.686296 70.000004 154.000004 67.313712 154.000004 64.000004C 154.000004 60.686295 156.686296 58.000004 160.000004 58.000004M 184 58C 187.313714 58.000004 190.000005 60.686295 190.000005 64.000004C 190.000005 67.313712 187.313714 70.000004 184.000005 70.000004C 180.686297 70.000004 178.000005 67.313712 178.000005 64.000004C 178.000005 60.686295 180.686297 58.000004 184.000005 58.000004M 208 58C 211.313714 58.000004 214.000006 60.686295 214.000006 64.000004C 214.000006 67.313712 211.313714 70.000004 208.000006 70.000004C 204.686297 70.000004 202.000006 67.313712 202.000006 64.000004C 202.000006 60.686295 204.686297 58.000004 208.000006 58.000004M 232 58C 235.313715 58.000004 238.000007 60.686295 238.000007 64.000004C 238.000007 67.313712 235.313715 70.000004 232.000007 70.000004C 228.686298 70.000004 226.000007 67.313712 226.000007 64.000004C 226.000007 60.686295 228.686298 58.000004 232.000007 58.000004M 16 34C 19.313709 34.000003 22 36.686294 22 40.000003C 22 43.313711 19.313709 46.000003 16 46.000003C 12.686292 46.000003 10 43.313711 10 40.000003C 10 36.686294 12.686292 34.000003 16 34.000003M 40 34C 43.313709 34.000003 46.000001 36.686294 46.000001 40.000003C 46.000001 43.313711 43.313709 46.000003 40.000001 46.000003C 36.686292 46.000003 34.000001 43.313711 34.000001 40.000003C 34.000001 36.686294 36.686292 34.000003 40.000001 34.000003M 64 34C 67.31371 34.000003 70.000002 36.686294 70.000002 40.000003C 70.000002 43.313711 67.31371 46.000003 64.000002 46.000003C 60.686293 46.000003 58.000002 43.313711 58.000002 40.000003C 58.000002 36.686294 60.686293 34.000003 64.000002 34.000003M 88 34C 91.313711 34.000003 94.000002 36.686294 94.000002 40.000003C 94.000002 43.313711 91.313711 46.000003 88.000002 46.000003C 84.686294 46.000003 82.000002 43.313711 82.000002 40.000003C 82.000002 36.686294 84.686294 34.000003 88.000002 34.000003M 112 34C 115.313712 34.000003 118.000003 36.686294 118.000003 40.000003C 118.000003 43.313711 115.313712 46.000003 112.000003 46.000003C 108.686295 46.000003 106.000003 43.313711 106.000003 40.000003C 106.000003 36.686294 108.686295 34.000003 112.000003 34.000003M 136 34C 139.313712 34.000003 142.000004 36.686294 142.000004 40.000003C 142.000004 43.313711 139.313712 46.000003 136.000004 46.000003C 132.686295 46.000003 130.000004 43.313711 130.000004 40.000003C 130.000004 36.686294 132.686295 34.000003 136.000004 34.000003M 160 34C 163.313713 34.000003 166.000004 36.686294 166.000004 40.000003C 166.000004 43.313711 163.313713 46.000003 160.000004 46.000003C 156.686296 46.000003 154.000004 43.313711 154.000004 40.000003C 154.000004 36.686294 156.686296 34.000003 160.000004 34.000003M 184 34C 187.313714 34.000003 190.000005 36.686294 190.000005 40.000003C 190.000005 43.313711 187.313714 46.000003 184.000005 46.000003C 180.686297 46.000003 178.000005 43.313711 178.000005 40.000003C 178.000005 36.686294 180.686297 34.000003 184.000005 34.000003M 208 34C 211.313714 34.000003 214.000006 36.686294 214.000006 40.000003C 214.000006 43.313711 211.313714 46.000003 208.000006 46.000003C 204.686297 46.000003 202.000006 43.313711 202.000006 40.000003C 202.000006 36.686294 204.686297 34.000003 208.000006 34.000003M 232 34C 235.313715 34.000003 238.000007 36.686294 238.000007 40.000003C 238.000007 43.313711 235.313715 46.000003 232.000007 46.000003C 228.686298 46.000003 226.000007 43.313711 226.000007 40.000003C 226.000007 36.686294 228.686298 34.000003 232.000007 34.000003M 16 10C 19.313709 10.000002 22 12.686294 22 16.000002C 22 19.313711 19.313709 22.000002 16 22.000002C 12.686292 22.000002 10 19.313711 10 16.000002C 10 12.686294 12.686292 10.000002 16 10.000002M 40 10C 43.313709 10.000002 46.000001 12.686294 46.000001 16.000002C 46.000001 19.313711 43.313709 22.000002 40.000001 22.000002C 36.686292 22.000002 34.000001 19.313711 34.000001 16.000002C 34.000001 12.686294 36.686292 10.000002 40.000001 10.000002M 64 10C 67.31371 10.000002 70.000002 12.686294 70.000002 16.000002C 70.000002 19.313711 67.31371 22.000002 64.000002 22.000002C 60.686293 22.000002 58.000002 19.313711 58.000002 16.000002C 58.000002 12.686294 60.686293 10.000002 64.000002 10.000002"></path></g></g></g><g id="g-root-cp_2_hollow_2_greater_1hitiwo1730utd-fill" data-item-order="-334385" transform="translate(338, 242.0400390625)"></g><g id="g-root-cp_2_hollow_2_greater_1hitiwo1730utd-stroke" data-item-order="-334385" transform="translate(338, 242.0400390625)"><g id="cp_2_hollow_2_greater_1hitiwo1730utd-stroke" fill="none" stroke-linecap="round" stroke-linejoin="round" stroke-miterlimit="4" class="s-dark" stroke-width="2" stroke-opacity="1"><g><path d="M 88 82C 91.313711 82.000002 94.000002 84.686294 94.000002 88.000002C 94.000002 91.313711 91.313711 94.000002 88.000002 94.000002C 84.686294 94.000002 82.000002 91.313711 82.000002 88.000002C 82.000002 84.686294 84.686294 82.000002 88.000002 82.000002M 112 82C 115.313712 82.000002 118.000003 84.686294 118.000003 88.000002C 118.000003 91.313711 115.313712 94.000002 112.000003 94.000002C 108.686295 94.000002 106.000003 91.313711 106.000003 88.000002C 106.000003 84.686294 108.686295 82.000002 112.000003 82.000002M 136 82C 139.313712 82.000002 142.000004 84.686294 142.000004 88.000002C 142.000004 91.313711 139.313712 94.000002 136.000004 94.000002C 132.686295 94.000002 130.000004 91.313711 130.000004 88.000002C 130.000004 84.686294 132.686295 82.000002 136.000004 82.000002M 160 82C 163.313713 82.000002 166.000004 84.686294 166.000004 88.000002C 166.000004 91.313711 163.313713 94.000002 160.000004 94.000002C 156.686296 94.000002 154.000004 91.313711 154.000004 88.000002C 154.000004 84.686294 156.686296 82.000002 160.000004 82.000002M 184 82C 187.313714 82.000002 190.000005 84.686294 190.000005 88.000002C 190.000005 91.313711 187.313714 94.000002 184.000005 94.000002C 180.686297 94.000002 178.000005 91.313711 178.000005 88.000002C 178.000005 84.686294 180.686297 82.000002 184.000005 82.000002M 208 82C 211.313714 82.000002 214.000006 84.686294 214.000006 88.000002C 214.000006 91.313711 211.313714 94.000002 208.000006 94.000002C 204.686297 94.000002 202.000006 91.313711 202.000006 88.000002C 202.000006 84.686294 204.686297 82.000002 208.000006 82.000002M 232 82C 235.313715 82.000002 238.000007 84.686294 238.000007 88.000002C 238.000007 91.313711 235.313715 94.000002 232.000007 94.000002C 228.686298 94.000002 226.000007 91.313711 226.000007 88.000002C 226.000007 84.686294 228.686298 82.000002 232.000007 82.000002M 16 58C 19.313709 58.000001 22 60.686293 22 64.000001C 22 67.31371 19.313709 70.000001 16 70.000001C 12.686292 70.000001 10 67.31371 10 64.000001C 10 60.686293 12.686292 58.000001 16 58.000001M 40 58C 43.313709 58.000001 46.000001 60.686293 46.000001 64.000001C 46.000001 67.31371 43.313709 70.000001 40.000001 70.000001C 36.686292 70.000001 34.000001 67.31371 34.000001 64.000001C 34.000001 60.686293 36.686292 58.000001 40.000001 58.000001M 64 58C 67.31371 58.000001 70.000002 60.686293 70.000002 64.000001C 70.000002 67.31371 67.31371 70.000001 64.000002 70.000001C 60.686293 70.000001 58.000002 67.31371 58.000002 64.000001C 58.000002 60.686293 60.686293 58.000001 64.000002 58.000001M 88 58C 91.313711 58.000001 94.000002 60.686293 94.000002 64.000001C 94.000002 67.31371 91.313711 70.000001 88.000002 70.000001C 84.686294 70.000001 82.000002 67.31371 82.000002 64.000001C 82.000002 60.686293 84.686294 58.000001 88.000002 58.000001M 112 58C 115.313712 58.000001 118.000003 60.686293 118.000003 64.000001C 118.000003 67.31371 115.313712 70.000001 112.000003 70.000001C 108.686295 70.000001 106.000003 67.31371 106.000003 64.000001C 106.000003 60.686293 108.686295 58.000001 112.000003 58.000001M 136 58C 139.313712 58.000001 142.000004 60.686293 142.000004 64.000001C 142.000004 67.31371 139.313712 70.000001 136.000004 70.000001C 132.686295 70.000001 130.000004 67.31371 130.000004 64.000001C 130.000004 60.686293 132.686295 58.000001 136.000004 58.000001M 160 58C 163.313713 58.000001 166.000004 60.686293 166.000004 64.000001C 166.000004 67.31371 163.313713 70.000001 160.000004 70.000001C 156.686296 70.000001 154.000004 67.31371 154.000004 64.000001C 154.000004 60.686293 156.686296 58.000001 160.000004 58.000001M 184 58C 187.313714 58.000001 190.000005 60.686293 190.000005 64.000001C 190.000005 67.31371 187.313714 70.000001 184.000005 70.000001C 180.686297 70.000001 178.000005 67.31371 178.000005 64.000001C 178.000005 60.686293 180.686297 58.000001 184.000005 58.000001M 208 58C 211.313714 58.000001 214.000006 60.686293 214.000006 64.000001C 214.000006 67.31371 211.313714 70.000001 208.000006 70.000001C 204.686297 70.000001 202.000006 67.31371 202.000006 64.000001C 202.000006 60.686293 204.686297 58.000001 208.000006 58.000001M 232 58C 235.313715 58.000001 238.000007 60.686293 238.000007 64.000001C 238.000007 67.31371 235.313715 70.000001 232.000007 70.000001C 228.686298 70.000001 226.000007 67.31371 226.000007 64.000001C 226.000007 60.686293 228.686298 58.000001 232.000007 58.000001M 16 34C 19.313709 34.000001 22 36.686292 22 40.000001C 22 43.313709 19.313709 46.000001 16 46.000001C 12.686292 46.000001 10 43.313709 10 40.000001C 10 36.686292 12.686292 34.000001 16 34.000001M 40 34C 43.313709 34.000001 46.000001 36.686292 46.000001 40.000001C 46.000001 43.313709 43.313709 46.000001 40.000001 46.000001C 36.686292 46.000001 34.000001 43.313709 34.000001 40.000001C 34.000001 36.686292 36.686292 34.000001 40.000001 34.000001M 64 34C 67.31371 34.000001 70.000002 36.686292 70.000002 40.000001C 70.000002 43.313709 67.31371 46.000001 64.000002 46.000001C 60.686293 46.000001 58.000002 43.313709 58.000002 40.000001C 58.000002 36.686292 60.686293 34.000001 64.000002 34.000001M 88 34C 91.313711 34.000001 94.000002 36.686292 94.000002 40.000001C 94.000002 43.313709 91.313711 46.000001 88.000002 46.000001C 84.686294 46.000001 82.000002 43.313709 82.000002 40.000001C 82.000002 36.686292 84.686294 34.000001 88.000002 34.000001M 112 34C 115.313712 34.000001 118.000003 36.686292 118.000003 40.000001C 118.000003 43.313709 115.313712 46.000001 112.000003 46.000001C 108.686295 46.000001 106.000003 43.313709 106.000003 40.000001C 106.000003 36.686292 108.686295 34.000001 112.000003 34.000001M 136 34C 139.313712 34.000001 142.000004 36.686292 142.000004 40.000001C 142.000004 43.313709 139.313712 46.000001 136.000004 46.000001C 132.686295 46.000001 130.000004 43.313709 130.000004 40.000001C 130.000004 36.686292 132.686295 34.000001 136.000004 34.000001M 160 34C 163.313713 34.000001 166.000004 36.686292 166.000004 40.000001C 166.000004 43.313709 163.313713 46.000001 160.000004 46.000001C 156.686296 46.000001 154.000004 43.313709 154.000004 40.000001C 154.000004 36.686292 156.686296 34.000001 160.000004 34.000001M 184 34C 187.313714 34.000001 190.000005 36.686292 190.000005 40.000001C 190.000005 43.313709 187.313714 46.000001 184.000005 46.000001C 180.686297 46.000001 178.000005 43.313709 178.000005 40.000001C 178.000005 36.686292 180.686297 34.000001 184.000005 34.000001M 208 34C 211.313714 34.000001 214.000006 36.686292 214.000006 40.000001C 214.000006 43.313709 211.313714 46.000001 208.000006 46.000001C 204.686297 46.000001 202.000006 43.313709 202.000006 40.000001C 202.000006 36.686292 204.686297 34.000001 208.000006 34.000001M 232 34C 235.313715 34.000001 238.000007 36.686292 238.000007 40.000001C 238.000007 43.313709 235.313715 46.000001 232.000007 46.000001C 228.686298 46.000001 226.000007 43.313709 226.000007 40.000001C 226.000007 36.686292 228.686298 34.000001 232.000007 34.000001M 16 10C 19.313709 10 22 12.686292 22 16C 22 19.313708 19.313709 22 16 22C 12.686292 22 10 19.313708 10 16C 10 12.686292 12.686292 10 16 10M 40 10C 43.313709 10 46.000001 12.686292 46.000001 16C 46.000001 19.313708 43.313709 22 40.000001 22C 36.686292 22 34.000001 19.313708 34.000001 16C 34.000001 12.686292 36.686292 10 40.000001 10M 64 10C 67.31371 10 70.000002 12.686292 70.000002 16C 70.000002 19.313708 67.31371 22 64.000002 22C 60.686293 22 58.000002 19.313708 58.000002 16C 58.000002 12.686292 60.686293 10 64.000002 10M 88 10C 91.313711 10 94.000002 12.686292 94.000002 16C 94.000002 19.313708 91.313711 22 88.000002 22C 84.686294 22 82.000002 19.313708 82.000002 16C 82.000002 12.686292 84.686294 10 88.000002 10M 112 10C 115.313712 10 118.000003 12.686292 118.000003 16C 118.000003 19.313708 115.313712 22 112.000003 22C 108.686295 22 106.000003 19.313708 106.000003 16C 106.000003 12.686292 108.686295 10 112.000003 10M 136 10C 139.313712 10 142.000004 12.686292 142.000004 16C 142.000004 19.313708 139.313712 22 136.000004 22C 132.686295 22 130.000004 19.313708 130.000004 16C 130.000004 12.686292 132.686295 10 136.000004 10M 160 10C 163.313713 10 166.000004 12.686292 166.000004 16C 166.000004 19.313708 163.313713 22 160.000004 22C 156.686296 22 154.000004 19.313708 154.000004 16C 154.000004 12.686292 156.686296 10 160.000004 10M 184 10C 187.313714 10 190.000005 12.686292 190.000005 16C 190.000005 19.313708 187.313714 22 184.000005 22C 180.686297 22 178.000005 19.313708 178.000005 16C 178.000005 12.686292 180.686297 10 184.000005 10M 208 10C 211.313714 10 214.000006 12.686292 214.000006 16C 214.000006 19.313708 211.313714 22 208.000006 22C 204.686297 22 202.000006 19.313708 202.000006 16C 202.000006 12.686292 204.686297 10 208.000006 10M 232 10C 235.313715 10 238.000007 12.686292 238.000007 16C 238.000007 19.313708 235.313715 22 232.000007 22C 228.686298 22 226.000007 19.313708 226.000007 16C 226.000007 12.686292 228.686298 10 232.000007 10"></path></g></g></g><g id="g-root-tx_aiintera_i0vz081730vm3-fill" data-item-order="0" transform="translate(181.9453125, 38.0400390625)"><g id="tx_aiintera_i0vz081730vm3-fill-merged" stroke="none" class="t-dark" fill-opacity="1"><g><text style="font: bold 25px Roboto, sans-serif; white-space: pre;" transform="translate(130.0546875, 25)" font-weight="bold" font-size="25px" font-family="Roboto, sans-serif"><tspan x="-118.05" y="14.5" dominant-baseline="ideographic">AI Interaction Impact</tspan></text></g></g></g><g id="g-root-tx_aiintera_i0vz081730vm3-stroke" data-item-order="0" transform="translate(181.9453125, 38.0400390625)"></g><g id="g-root-tx_airespon_1q5pvy017329zg-fill" data-item-order="0" transform="translate(38, 128.0400390625)"><g id="tx_airespon_1q5pvy017329zg-fill-merged" stroke="none" fill="#3cc583" fill-opacity="1"><g><text style="font: 20px Roboto, sans-serif; white-space: pre;" transform="translate(10, 22)" font-size="20px" font-family="Roboto, sans-serif"><tspan x="2" y="11.5" dominant-baseline="ideographic">AI Responses Drop-off</tspan></text></g></g></g><g id="g-root-tx_airespon_1q5pvy017329zg-stroke" data-item-order="0" transform="translate(38, 128.0400390625)"></g><g id="g-root-tx_userseng_magq9k17327ey-fill" data-item-order="0" transform="translate(338, 128.0400390625)"><g id="tx_userseng_magq9k17327ey-fill-merged" stroke="none" fill="#92bd39" fill-opacity="1"><g><text style="font: 20px Roboto, sans-serif; white-space: pre;" transform="translate(10, 34)" font-size="20px" font-family="Roboto, sans-serif"><tspan x="2" y="-0.5" dominant-baseline="ideographic">Users Engaging with </tspan><tspan x="2" y="23.5" dominant-baseline="ideographic">Follow-up AI</tspan></text></g></g></g><g id="g-root-tx_userseng_magq9k17327ey-stroke" data-item-order="0" transform="translate(338, 128.0400390625)"></g><g id="g-root-tx_decrease_1cuvuns17328el-fill" data-item-order="0" transform="translate(38, 164.0400390625)"><g id="tx_decrease_1cuvuns17328el-fill-merged" stroke="none" class="t-dark" fill-opacity="1"><g><text style="font: 15px Roboto, sans-serif; white-space: pre;" transform="translate(10, 19)" font-size="15px" font-family="Roboto, sans-serif"><tspan x="2" y="8.5" dominant-baseline="ideographic">Decreased from 31% to 7%.</tspan></text></g></g></g><g id="g-root-tx_decrease_1cuvuns17328el-stroke" data-item-order="0" transform="translate(38, 164.0400390625)"></g><g id="g-root-tx_increase_4j6prs17329s3-fill" data-item-order="0" transform="translate(338, 188.0400390625)"><g id="tx_increase_4j6prs17329s3-fill-merged" stroke="none" class="t-dark" fill-opacity="1"><g><text style="font: 15px Roboto, sans-serif; white-space: pre;" transform="translate(10, 28)" font-size="15px" font-family="Roboto, sans-serif"><tspan x="2" y="-0.5" dominant-baseline="ideographic">Increased user engagement with </tspan><tspan x="2" y="17.5" dominant-baseline="ideographic">AI features.</tspan></text></g></g></g><g id="g-root-tx_increase_4j6prs17329s3-stroke" data-item-order="0" transform="translate(338, 188.0400390625)"></g><g id="g-root-tx_77_1cwr9x417327ex-fill" data-item-order="0" transform="translate(38, 482.0400390625)"><g id="tx_77_1cwr9x417327ex-fill-merged" stroke="none" fill="#3cc583" fill-opacity="1"><g><text style="font: bold 25px Roboto, sans-serif; white-space: pre;" transform="translate(10, 25)" font-weight="bold" font-size="25px" font-family="Roboto, sans-serif"><tspan x="2" y="14.5" dominant-baseline="ideographic">-77%</tspan></text></g></g></g><g id="g-root-tx_77_1cwr9x417327ex-stroke" data-item-order="0" transform="translate(38, 482.0400390625)"></g><g id="g-root-tx_63_1luw6ig1732a6n-fill" data-item-order="0" transform="translate(338, 482.0400390625)"><g id="tx_63_1luw6ig1732a6n-fill-merged" stroke="none" fill="#92bd39" fill-opacity="1"><g><text style="font: bold 25px Roboto, sans-serif; white-space: pre;" transform="translate(10, 25)" font-weight="bold" font-size="25px" font-family="Roboto, sans-serif"><tspan x="2" y="14.5" dominant-baseline="ideographic">+63%</tspan></text></g></g></g><g id="g-root-tx_63_1luw6ig1732a6n-stroke" data-item-order="0" transform="translate(338, 482.0400390625)"></g><g id="g-root-tx_aiimprov_mdl3p417328ld-fill" data-item-order="0" transform="translate(14, 560.0400390625)"><g id="tx_aiimprov_mdl3p417328ld-fill-merged" stroke="none" class="t-dark" fill-opacity="1"><g><text style="font: 20px Roboto, sans-serif; white-space: pre;" transform="translate(10, 34)" font-size="20px" font-family="Roboto, sans-serif"><tspan x="2" y="-0.5" dominant-baseline="ideographic">AI improvements significantly boosted user trust, </tspan><tspan x="2" y="23.5" dominant-baseline="ideographic">engagement, and reduced drop-off.</tspan></text></g></g></g><g id="g-root-tx_aiimprov_mdl3p417328ld-stroke" data-item-order="0" transform="translate(14, 560.0400390625)"></g></g></g></svg>