<?xml version="1.0" encoding="utf-8" standalone="yes"?>
<!DOCTYPE svg PUBLIC "-//W3C//DTD SVG 1.1//EN" "http://www.w3.org/Graphics/SVG/1.1/DTD/svg11.dtd">
<svg style="fill:none;stroke:none;fill-rule:evenodd;clip-rule:evenodd;stroke-linecap:round;stroke-linejoin:round;stroke-miterlimit:1.5;" version="1.1" xmlns="http://www.w3.org/2000/svg" xmlns:xlink="http://www.w3.org/1999/xlink" width="924" height="778" viewBox="0 0 924 778"><style class="text-font-style fontImports" data-font-family="Roboto">@import url(https://fonts.googleapis.com/css2?family=Roboto:wght@400;700&amp;amp;display=block);</style><g id="items" style="isolation: isolate"><g id="blend" style="mix-blend-mode: normal"><g id="g-root-cp_common_g-common_13z9t6014l1p1g-fill" data-item-order="-592165" transform="translate(287, 110)"></g><g id="g-root-cp_common_g-common_13z9t6014l1p1g-stroke" data-item-order="-592165" transform="translate(287, 110)"></g><g id="g-root-cp_0_g-0_dcz9ig14l1p1h-fill" data-item-order="-592161" transform="translate(322.3919982910156, 321.9521484375)"></g><g id="g-root-cp_0_g-0_dcz9ig14l1p1h-stroke" data-item-order="-592161" transform="translate(322.3919982910156, 321.9521484375)"><g id="cp_0_g-0_dcz9ig14l1p1h-stroke" fill="none" stroke-linecap="round" stroke-linejoin="round" stroke-miterlimit="4" stroke="#ffffff" stroke-width="2" stroke-opacity="1"><g><path d="M 22.972669 275.570313C 23.134469 277.352713 23.679369 278.964013 24.608369 280.047813C 27.363569 283.262213 37.708869 289.429013 41.703069 296.223613L 41.608369 296.547813C 39.608369 300.547813 32.441669 302.881213 29.108369 303.547813C 24.275069 304.047813 13.808369 302.347813 10.608369 291.547813C 7.434569 280.836213 17.442569 276.454413 22.972669 275.570313Z"></path></g></g><g id="cp_0_g-0_dcz9ig14l1p1h-stroke" fill="none" stroke-linecap="round" stroke-linejoin="round" stroke-miterlimit="4" stroke="#ffffff" stroke-width="2" stroke-opacity="1"><g><path d="M 269.905828 356.995117C 276.105028 360.887717 276.067228 368.210417 275.607928 370.047817C 275.107928 372.047817 269.607928 380.547817 258.607928 377.047817C 250.451928 374.452417 249.971528 364.498317 250.873528 358.809617C 257.793028 361.037117 266.041528 359.510517 269.905828 356.995117Z"></path></g></g><g id="cp_0_g-0_dcz9ig14l1p1h-stroke" fill="none" stroke-linecap="round" stroke-linejoin="round" stroke-miterlimit="4" stroke="#ffffff" stroke-width="2" stroke-opacity="1"><g><path d="M 250.108367 69.0477C 245.941667 62.0477 237.608367 43.5477 236.608367 36.0477C 235.608367 28.5477 232.108367 23.5477 231.608367 17.5477C 229.941667 14.2144 223.108367 8.1477 209.108367 10.5477C 207.108367 11.7478 214.275067 18.7145 218.108367 22.0479C 219.275067 23.2145 220.608367 26.2479 216.608367 29.0479C 212.608367 31.8479 207.608367 29.5479 206.108367 30.5479C 204.441667 31.3811 202.108367 33.6476 206.108367 36.0477C 211.108367 39.0479 218.108367 35.5479 222.108367 39.5479C 226.108367 43.5479 229.608367 48.5479 230.608367 56.5479C 231.408367 62.9479 231.608367 70.2145 231.608367 73.0479M 250.108367 69.0477C 262.608367 69.0477 273.608367 76.0479 277.108367 86.0479C 279.908367 94.0479 277.608367 103.7145 276.108367 107.5479M 250.108367 69.0477C 243.308367 69.0477 235.608367 70.732 231.608367 73.0479M 231.608367 73.0479C 229.367967 74.3449 225.542667 77.7609 223.496367 83.0479M 236.108367 133.0479C 236.275067 131.3812 236.508367 127.6479 236.108367 126.0479C 235.608367 124.0479 233.608367 123.5479 227.608367 123.5479C 221.608367 123.5479 220.108367 113.0479 220.108367 110.5479C 219.108367 105.0479 222.108367 96.5479 222.108367 90.5479C 222.108367 87.7397 222.650267 85.2338 223.496367 83.0479M 236.108367 133.0479C 229.608367 131.5479 223.635667 130.3479 216.916667 131.5479C 208.518067 133.0479 190.608367 140.0479 182.608367 146.0479C 180.108367 147.0479 179.108367 146.0479 173.608367 139.5479C 168.775067 134.0479 157.408367 118.6479 150.608367 101.0479C 142.108367 79.0479 122.608367 73.5479 119.608367 74.0479C 116.608367 74.5479 112.608367 80.0479 113.608367 82.0479C 114.608367 84.0479 120.608367 92.0479 123.108367 96.5479C 125.608367 101.0479 131.608367 106.0479 135.608367 108.5479C 139.608367 111.0479 139.608367 112.5479 142.108367 122.0479C 144.608367 131.5479 154.608367 158.0479 163.108367 165.5479C 171.608367 173.0479 175.108367 170.5479 182.108367 168.0479C 189.108367 165.5479 210.108367 159.0479 215.108367 161.5479C 217.214667 162.601 217.368867 163.8316 216.916667 166.5479M 236.108367 133.0479C 239.920167 133.0479 243.050267 133.7515 245.608367 134.9301M 190.108367 238.0479C 192.441667 237.2145 197.608367 234.9479 199.608367 232.5479C 202.108367 224.5479 211.608367 221.5479 211.608367 215.5479C 211.608367 204.5479 215.108367 197.5479 215.108367 189.5479C 214.529667 176.8155 216.295467 170.2796 216.916667 166.5479M 190.108367 238.0479C 184.941667 235.3812 171.108367 230.0479 167.108367 227.0479C 163.108367 224.0479 157.608367 214.5479 146.108367 210.0479C 139.320067 206.6537 126.444467 201.2115 117.608367 200.2864M 190.108367 238.0479C 189.608367 245.2145 197.008367 261.7479 230.608367 270.5479C 259.108367 279.0479 270.108367 277.5479 269.608367 271.0479C 269.208367 265.8479 269.108367 258.8812 269.108367 256.0479M 53.608367 265.0479C 59.608367 257.0479 74.008367 238.8479 83.608367 230.0479C 95.608367 219.0479 102.108367 205.5479 110.608367 201.0479C 112.279467 200.1632 114.729467 199.9851 117.608367 200.2864M 53.608367 265.0479C 50.608367 265.2145 43.808367 265.9479 40.608367 267.5479C 36.108367 267.5479 32.608367 262.5479 27.608367 265.0479C 22.608367 267.5479 21.608367 276.5479 24.608367 280.0479C 27.608367 283.5479 39.608367 290.5479 42.608367 298.0479C 45.608367 305.5479 55.608367 302.5479 57.108367 298.0479C 58.308367 294.4479 56.941667 288.8812 56.108367 286.5479M 53.608367 265.0479C 49.108367 267.0479 40.708367 272.6479 43.108367 279.0479C 45.508367 285.4479 52.775067 286.7145 56.108367 286.5479M 56.108367 286.5479C 59.775067 281.8812 70.208367 271.0479 82.608367 265.0479C 95.008367 259.0479 104.108367 249.8812 107.108367 246.0479M 107.108367 246.0479C 108.941667 247.3812 114.208367 250.2479 120.608367 251.0479C 128.608367 252.0479 161.108367 270.5479 168.608367 276.5479C 176.108367 282.5479 185.108367 293.5479 197.608367 293.5479C 210.108367 293.5479 224.108367 297.0479 231.608367 301.5479C 237.608367 305.1479 247.775067 305.7145 252.108367 305.5479M 107.108367 246.0479C 99.908367 233.6479 111.108367 210.3736 117.608367 200.2864M 252.108367 305.5479C 247.608367 312.3812 236.708367 327.5479 229.108367 333.5479M 252.108367 305.5479C 259.941667 305.2145 278.808367 302.6479 291.608367 295.0479C 307.608367 285.5479 306.108367 256.7402 297.108367 256.0479M 229.108367 333.5479C 227.441667 333.7145 223.808367 335.0479 222.608367 339.0479C 221.108367 344.0479 221.108367 354.5479 225.108367 355.0479C 229.108367 355.5479 240.608367 355.0479 250.108367 358.5479C 259.608367 362.0479 272.108367 358.0479 272.108367 354.0479C 272.108367 350.0479 268.608367 345.0479 261.108367 344.0479C 255.108367 343.2479 250.275067 340.3812 248.608367 339.0479M 229.108367 333.5479C 228.775067 340.0479 232.208367 350.2479 248.608367 339.0479M 248.608367 339.0479C 258.441667 329.2145 280.208367 307.9479 288.608367 301.5479C 299.108367 293.5479 309.108367 280.5479 308.608367 271.0479C 308.108367 261.5479 303.608367 256.5479 297.108367 256.0479M 297.108367 256.0479C 291.908367 255.6479 276.275067 255.8812 269.108367 256.0479M 269.108367 256.0479C 269.275067 248.3812 271.608367 228.4479 279.608367 210.0479C 287.608367 191.6479 286.941667 178.3812 285.608367 174.0479M 285.608367 174.0479C 287.608367 173.2145 291.208367 168.3479 289.608367 155.5479C 287.608367 139.5479 286.108367 131.5479 284.608367 123.0479C 283.408367 116.2479 279.441667 112.8812 277.608367 112.0479M 285.608367 174.0479C 278.608367 172.0479 270.608367 186.5479 267.108367 187.0479C 263.608367 187.5479 266.108367 179.5479 261.108367 164.5479C 257.108367 152.5479 261.108367 143.2145 263.608367 140.0479M 277.608367 112.0479C 277.608367 111.2145 277.308367 109.1479 276.108367 107.5479M 277.608367 112.0479C 270.408367 110.8479 269.275067 116.2145 269.608367 119.0479M 276.108367 107.5479C 269.108367 104.5479 263.608367 112.0479 263.608367 114.5479C 263.608367 116.5479 267.608367 118.3812 269.608367 119.0479M 216.916667 166.5479C 217.147267 172.5479 222.208367 182.8479 240.608367 176.0479C 255.008367 169.6479 256.941667 159.7145 256.108367 155.5479C 256.630667 149.6722 254.861567 139.1935 245.608367 134.9301M 245.608367 134.9301C 248.166467 136.1087 255.108367 139.0479 257.608367 139.5479C 260.108367 140.0479 263.608367 140.0479 263.608367 140.0479M 263.608367 140.0479C 265.482467 138.0398 268.732967 132.6771 269.525167 125.0479M 269.608367 119.0479C 269.765767 121.1732 269.719267 123.1786 269.525167 125.0479M 223.496367 83.0479C 224.200367 86.2145 225.808367 93.3479 226.608367 96.5479C 226.608367 100.0479 225.108367 108.5479 227.608367 109.0479C 229.108367 109.5479 229.608367 105.5479 231.608367 106.0479C 232.808767 106.348 233.829067 107.0083 234.452967 108.3532M 229.608367 116.5479C 231.608367 120.0479 235.108367 116.0479 235.108367 112.0479C 235.108367 110.4486 234.868567 109.249 234.452967 108.3532M 234.452967 108.3532C 237.338067 110.0847 244.408367 116.0479 249.608367 126.0479C 253.108367 132.0479 258.360567 134.0479 263.608367 131.5479C 266.008367 129.9479 268.552867 126.5479 269.525167 125.0479"></path></g></g></g><g id="g-root-cp_4_g-4_2588814l1ngm-fill" data-item-order="-592151" transform="translate(518, 154)"></g><g id="g-root-cp_4_g-4_2588814l1ngm-stroke" data-item-order="-592151" transform="translate(518, 154)"><g id="cp_4_g-4_2588814l1ngm-stroke" fill="none" stroke-linecap="round" stroke-linejoin="round" stroke-miterlimit="4" stroke="#ba5de5" stroke-width="2" stroke-opacity="1"><g><path d="M 24.5972 10.8966C 19.0972 8.3967 8.8972 11.1963 10.0972 18.3963C 10.9306 23.3963 13.5972 27.3962 22.0972 30.8962C 30.5972 34.3962 35.5695 39.3962 40.0972 39.3962C 47.0972 39.3962 60.3418 36.3959 62.5972 21.8962C 65.1639 5.3959 46.5972 15.3962 36.0972 14.8962C 33.0972 14.7533 26.0972 11.3964 24.5972 10.8966Z"></path></g></g></g><g id="g-root-cp_3_g-3_1q7m9yg14l1o27-fill" data-item-order="-592147" transform="translate(344, 225)"></g><g id="g-root-cp_3_g-3_1q7m9yg14l1o27-stroke" data-item-order="-592147" transform="translate(344, 225)"><g id="cp_3_g-3_1q7m9yg14l1o27-stroke" fill="none" stroke-linecap="round" stroke-linejoin="round" stroke-miterlimit="4" stroke="#e55753" stroke-width="2" stroke-opacity="1"><g><path d="M 10 30.272C 10 44.1986 24.8405 32.2497 32.2523 46.094C 39.6641 59.9382 59.4274 46.5884 49.0509 35.2163C 38.6745 23.8443 47.8071 10 32.2522 10C 16.6972 10 10 16.3454 10 30.272Z"></path></g></g></g><g id="g-root-cp_2_g-2_1lrsru014l1oug-fill" data-item-order="-592143" transform="translate(494, 311)"></g><g id="g-root-cp_2_g-2_1lrsru014l1oug-stroke" data-item-order="-592143" transform="translate(494, 311)"><g id="cp_2_g-2_1lrsru014l1oug-stroke" fill="none" stroke-linecap="round" stroke-linejoin="round" stroke-miterlimit="4" stroke="#e0cb15" stroke-width="2" stroke-opacity="1"><g><path d="M 39.8036 48.3428C 42.9693 48.4862 46.2505 48.0367 48.8221 49.3018C 46.0645 50.3819 42.8488 50.3093 39.8036 48.3428ZM 27.7577 10.6611C 37.9243 7.9386 39.0066 14.0662 42.4295 20.9736C 40.8962 21.0305 39.2543 21.1992 37.4998 21.5C 35.4998 22.7001 42.6665 29.6667 46.4998 33C 47.6665 34.1667 48.9996 37.2001 44.9998 40C 41 42.7999 35.9997 40.5 34.4998 41.5C 33.9194 41.7902 33.2578 42.254 32.8114 42.8369C 23.3454 38.2655 14.3408 48.3689 11.162 36.5127C 7.4832 22.7914 12.4133 14.7703 27.7577 10.6611Z"></path></g></g></g><g id="g-root-cp_1_g-1_1hbz9pk14l1pmp-fill" data-item-order="-592139" transform="translate(337.9999694824219, 394)"></g><g id="g-root-cp_1_g-1_1hbz9pk14l1pmp-stroke" data-item-order="-592139" transform="translate(337.9999694824219, 394)"><g id="cp_1_g-1_1hbz9pk14l1pmp-stroke" fill="none" stroke-linecap="round" stroke-linejoin="round" stroke-miterlimit="4" stroke="#de8431" stroke-width="2" stroke-opacity="1"><g><path d="M 28.220531 36.9723C 37.758131 34.4626 45.166531 43.4301 47.744031 32.1491C 50.321531 20.8681 32.814031 7.8034 23.276431 10.313C 13.738831 12.8227 12.749131 19.4885 10.342231 28.2001C 7.935331 36.9118 18.682931 39.4819 28.220531 36.9723Z"></path></g></g></g><g id="g-root-tx_slowacce_zn75k814l1n2n-fill" data-item-order="0" transform="translate(674, 131)"><g id="tx_slowacce_zn75k814l1n2n-fill-merged" stroke="none" fill="#ba5de5" fill-opacity="1"><g><text style="font: 20px Roboto, sans-serif; white-space: pre;" transform="translate(10, 34)" font-size="20px" font-family="Roboto, sans-serif"><tspan x="2" y="-0.5" dominant-baseline="ideographic">Slow Access to </tspan><tspan x="2" y="23.5" dominant-baseline="ideographic">Advice</tspan></text></g></g></g><g id="g-root-tx_slowacce_zn75k814l1n2n-stroke" data-item-order="0" transform="translate(674, 131)"></g><g id="g-root-tx_daunting_qpoq2014l1pmr-fill" data-item-order="0" transform="translate(40.84375, 182)"><g id="tx_daunting_qpoq2014l1pmr-fill-merged" stroke="none" fill="#e55753" fill-opacity="1"><g><text style="font: 20px Roboto, sans-serif; white-space: pre;" transform="translate(199.15625, 34)" font-size="20px" font-family="Roboto, sans-serif"><tspan x="-187.16" y="-0.5" dominant-baseline="ideographic">Daunting Application </tspan><tspan x="-74.33" y="23.5" dominant-baseline="ideographic">Process</tspan></text></g></g></g><g id="g-root-tx_daunting_qpoq2014l1pmr-stroke" data-item-order="0" transform="translate(40.84375, 182)"></g><g id="g-root-tx_limitedp_v7dnfs14l1nuw-fill" data-item-order="0" transform="translate(674, 191)"><g id="tx_limitedp_v7dnfs14l1nuw-fill-merged" stroke="none" fill="#ffffff" fill-opacity="1"><g><text style="font: 15px Roboto, sans-serif; white-space: pre;" transform="translate(10, 28)" font-size="15px" font-family="Roboto, sans-serif"><tspan x="2" y="-0.5" dominant-baseline="ideographic">Limited personalized </tspan><tspan x="2" y="17.5" dominant-baseline="ideographic">support available</tspan></text></g></g></g><g id="g-root-tx_limitedp_v7dnfs14l1nuw-stroke" data-item-order="0" transform="translate(674, 191)"></g><g id="g-root-tx_complexa_4j7oiw14l1ouk-fill" data-item-order="0" transform="translate(45.0703125, 242)"><g id="tx_complexa_4j7oiw14l1ouk-fill-merged" stroke="none" fill="#ffffff" fill-opacity="1"><g><text style="font: 15px Roboto, sans-serif; white-space: pre;" transform="translate(194.9296875, 28)" font-size="15px" font-family="Roboto, sans-serif"><tspan x="-182.93" y="-0.5" dominant-baseline="ideographic">Complex applications, tight </tspan><tspan x="-66.31" y="17.5" dominant-baseline="ideographic">deadlines</tspan></text></g></g></g><g id="g-root-tx_complexa_4j7oiw14l1ouk-stroke" data-item-order="0" transform="translate(45.0703125, 242)"></g><g id="g-root-tx_unclearc_hvx52g14l1pft-fill" data-item-order="0" transform="translate(674, 323)"><g id="tx_unclearc_hvx52g14l1pft-fill-merged" stroke="none" fill="#e0cb15" fill-opacity="1"><g><text style="font: 20px Roboto, sans-serif; white-space: pre;" transform="translate(10, 22)" font-size="20px" font-family="Roboto, sans-serif"><tspan x="2" y="11.5" dominant-baseline="ideographic">Unclear Career Paths</tspan></text></g></g></g><g id="g-root-tx_unclearc_hvx52g14l1pft-stroke" data-item-order="0" transform="translate(674, 323)"></g><g id="g-root-tx_lackofgu_4l33s814l1nuy-fill" data-item-order="0" transform="translate(674, 359)"><g id="tx_lackofgu_4l33s814l1nuy-fill-merged" stroke="none" fill="#ffffff" fill-opacity="1"><g><text style="font: 15px Roboto, sans-serif; white-space: pre;" transform="translate(10, 19)" font-size="15px" font-family="Roboto, sans-serif"><tspan x="2" y="8.5" dominant-baseline="ideographic">Lack of guidance on majors</tspan></text></g></g></g><g id="g-root-tx_lackofgu_4l33s814l1nuy-stroke" data-item-order="0" transform="translate(674, 359)"></g><g id="g-root-tx_toomanyo_1q9hp7s14l1n2l-fill" data-item-order="0" transform="translate(64.28125, 374)"><g id="tx_toomanyo_1q9hp7s14l1n2l-fill-merged" stroke="none" fill="#de8431" fill-opacity="1"><g><text style="font: 20px Roboto, sans-serif; white-space: pre;" transform="translate(175.71875, 22)" font-size="20px" font-family="Roboto, sans-serif"><tspan x="-163.72" y="11.5" dominant-baseline="ideographic">Too Many Options</tspan></text></g></g></g><g id="g-root-tx_toomanyo_1q9hp7s14l1n2l-stroke" data-item-order="0" transform="translate(64.28125, 374)"></g><g id="g-root-tx_complexc_1cy16ug14l1oni-fill" data-item-order="0" transform="translate(47.7734375, 410)"><g id="tx_complexc_1cy16ug14l1oni-fill-merged" stroke="none" fill="#ffffff" fill-opacity="1"><g><text style="font: 15px Roboto, sans-serif; white-space: pre;" transform="translate(192.2265625, 28)" font-size="15px" font-family="Roboto, sans-serif"><tspan x="-180.23" y="-0.5" dominant-baseline="ideographic">Complex choices, complex </tspan><tspan x="-48.34" y="17.5" dominant-baseline="ideographic">criteria</tspan></text></g></g></g><g id="g-root-tx_complexc_1cy16ug14l1oni-stroke" data-item-order="0" transform="translate(47.7734375, 410)"></g></g></g></svg>