<?xml version="1.0" encoding="utf-8" standalone="yes"?>
<!DOCTYPE svg PUBLIC "-//W3C//DTD SVG 1.1//EN" "http://www.w3.org/Graphics/SVG/1.1/DTD/svg11.dtd">
<svg style="fill:none;stroke:none;fill-rule:evenodd;clip-rule:evenodd;stroke-linecap:round;stroke-linejoin:round;stroke-miterlimit:1.5;" version="1.1" xmlns="http://www.w3.org/2000/svg" xmlns:xlink="http://www.w3.org/1999/xlink" width="885" height="642" viewBox="0 0 885 642"><style class="text-font-style fontImports" data-font-family="Roboto">@import url(https://fonts.googleapis.com/css2?family=Roboto:wght@400;700&amp;amp;display=block);
.m-stroke{stroke:#2c2c2c;stroke-opacity:1}
.m-text{fill:#2c2c2c;fill-opacity:1}
svg.dark .m-stroke{stroke:#fafafa}
svg.dark .m-text{fill:#fafafa}
@media(prefers-color-scheme:dark){svg:not(.light) .m-stroke{stroke:#fafafa}svg:not(.light) .m-text{fill:#fafafa}}
</style><g id="items" style="isolation: isolate"><g id="blend" style="mix-blend-mode: normal"><g id="g-root-cp_0b_g-0b_qn617c17mrlzf-fill" data-item-order="-526669" transform="translate(124.7109375, 320)"></g><g id="g-root-cp_0b_g-0b_qn617c17mrlzf-stroke" data-item-order="-526669" transform="translate(124.7109375, 320)"><g id="cp_0b_g-0b_qn617c17mrlzf-stroke" fill="none" stroke-linecap="round" stroke-linejoin="round" stroke-miterlimit="4" class="m-stroke" stroke-width="2" stroke-dasharray="5.0, 7.0" stroke-opacity="1"><g><path d="M 646 10L 10 10"></path></g></g></g><g id="g-root-cp_0a_g-0a_dcbzx417mrkek-fill" data-item-order="-526665" transform="translate(88.7109375, 188)"></g><g id="g-root-cp_0a_g-0a_dcbzx417mrkek-stroke" data-item-order="-526665" transform="translate(88.7109375, 188)"><g id="cp_0a_g-0a_dcbzx417mrkek-stroke" fill="none" stroke-linecap="round" stroke-linejoin="round" stroke-miterlimit="4" class="m-stroke" stroke-width="2" stroke-opacity="1"><g><path d="M 274 130L 334 34L 344 42.5L 364 10L 418 82L 430 70L 466 130L 274 130ZM 312 118L 331 89L 354 94L 339 76L 365 34L 418 106L 428 94L 443 118L 312 118ZM 46 106L 10 106L 16.5 118L 10 130L 46 130M 682 106L 718 106L 711.5 118L 718 130L 682 130"></path></g></g></g><g id="g-root-cp_0a_poles_8wihso17mrl6t-fill" data-item-order="-526651" transform="translate(124.7109375, 284)"></g><g id="g-root-cp_0a_poles_8wihso17mrl6t-stroke" data-item-order="-526651" transform="translate(124.7109375, 284)"><g id="cp_0a_poles_8wihso17mrl6t-stroke" fill="none" stroke-linecap="round" stroke-linejoin="round" stroke-miterlimit="4" class="m-stroke" stroke-width="2" stroke-opacity="1"><g><path d="M 10 34L 10 10L 10 46M 646 34L 646 10L 646 46"></path></g></g></g><g id="g-root-cp_1_line_1_1um61eg17mrmkm-fill" data-item-order="-526629" transform="translate(256.7109375, 344)"></g><g id="g-root-cp_1_line_1_1um61eg17mrmkm-stroke" data-item-order="-526629" transform="translate(256.7109375, 344)"><g id="cp_1_line_1_1um61eg17mrmkm-stroke" fill="none" stroke-linecap="round" stroke-linejoin="round" stroke-miterlimit="4" class="m-stroke" stroke-width="2" stroke-opacity="1"><g><path d="M 10 10L 10 64"></path></g></g></g><g id="g-root-cp_1_g-1_1lr5i8o17mrk7j-fill" data-item-order="-526617" transform="translate(352.7109375, 332)"></g><g id="g-root-cp_1_g-1_1lr5i8o17mrk7j-stroke" data-item-order="-526617" transform="translate(352.7109375, 332)"><g id="cp_1_g-1_1lr5i8o17mrk7j-stroke" fill="none" stroke-linecap="round" stroke-linejoin="round" stroke-miterlimit="4" class="m-stroke" stroke-width="2" stroke-opacity="1"><g><path d="M 22 64L 10 10L 202 10L 185 64L 22 64Z"></path></g></g></g><g id="g-root-cp_2_line_3_1cvihzs17mrls0-fill" data-item-order="-526601" transform="translate(628.7109375, 398)"></g><g id="g-root-cp_2_line_3_1cvihzs17mrls0-stroke" data-item-order="-526601" transform="translate(628.7109375, 398)"><g id="cp_2_line_3_1cvihzs17mrls0-stroke" fill="none" stroke-linecap="round" stroke-linejoin="round" stroke-miterlimit="4" class="m-stroke" stroke-width="2" stroke-opacity="1"><g><path d="M 10 10L 10 64"></path></g></g></g><g id="g-root-cp_2_g-2_13zvhqw17mrmkp-fill" data-item-order="-526593" transform="translate(364.7109375, 386)"></g><g id="g-root-cp_2_g-2_13zvhqw17mrmkp-stroke" data-item-order="-526593" transform="translate(364.7109375, 386)"><g id="cp_2_g-2_13zvhqw17mrmkp-stroke" fill="none" stroke-linecap="round" stroke-linejoin="round" stroke-miterlimit="4" class="m-stroke" stroke-width="2" stroke-opacity="1"><g><path d="M 16.5429 45.26038L 10 10L 173 10L 157.5 64L 145.830002 46.989639L 142 64L 34 64L 30 40.15L 16.5429 45.26038Z"></path></g></g></g><g id="g-root-cp_3_line_5_zkogpk17mrk76-fill" data-item-order="-526575" transform="translate(256.7109375, 452)"></g><g id="g-root-cp_3_line_5_zkogpk17mrk76-stroke" data-item-order="-526575" transform="translate(256.7109375, 452)"><g id="cp_3_line_5_zkogpk17mrk76-stroke" fill="none" stroke-linecap="round" stroke-linejoin="round" stroke-miterlimit="4" class="m-stroke" stroke-width="2" stroke-opacity="1"><g><path d="M 10 10L 10 82"></path></g></g></g><g id="g-root-cp_3_g-3_m97yc817mrls3-fill" data-item-order="-526565" transform="translate(388.7109375, 440)"></g><g id="g-root-cp_3_g-3_m97yc817mrls3-stroke" data-item-order="-526565" transform="translate(388.7109375, 440)"><g id="cp_3_g-3_m97yc817mrls3-stroke" fill="none" stroke-linecap="round" stroke-linejoin="round" stroke-miterlimit="4" class="m-stroke" stroke-width="2" stroke-opacity="1"><g><path d="M 10 10L 16.2804 60.454548L 32.580999 52.272728L 62.720402 154L 81.147003 101.636368L 98.549797 114.72728L 105.715698 75.454544L 105.7686 75.454544L 118 10L 10 10Z"></path></g></g></g><g id="g-root-he_ddky3c17mrmkt-fill" data-item-order="-526555" transform="translate(328.7109375, 365)"></g><g id="g-root-he_ddky3c17mrmkt-stroke" data-item-order="-526555" transform="translate(328.7109375, 365)"><g id="he_ddky3c17mrmkt-stroke" fill="none" stroke-linecap="round" stroke-linejoin="round" stroke-miterlimit="4" class="m-stroke" stroke-width="2" stroke-opacity="1"><g><path d="M 41 10L 10 10"></path></g></g></g><g id="g-root-he_ddky3c17mrmkv-fill" data-item-order="-526553" transform="translate(518.2109375, 419)"></g><g id="g-root-he_ddky3c17mrmkv-stroke" data-item-order="-526553" transform="translate(518.2109375, 419)"><g id="he_ddky3c17mrmkv-stroke" fill="none" stroke-linecap="round" stroke-linejoin="round" stroke-miterlimit="4" class="m-stroke" stroke-width="2" stroke-opacity="1"><g><path d="M 10 10L 48.5 10"></path></g></g></g><g id="g-root-he_8ydx2017mrk7d-fill" data-item-order="-526551" transform="translate(328.7109375, 482)"></g><g id="g-root-he_8ydx2017mrk7d-stroke" data-item-order="-526551" transform="translate(328.7109375, 482)"><g id="he_8ydx2017mrk7d-stroke" fill="none" stroke-linecap="round" stroke-linejoin="round" stroke-miterlimit="4" class="m-stroke" stroke-width="2" stroke-opacity="1"><g><path d="M 75 10L 10 10"></path></g></g></g><g id="g-root-tx_userswan_4mc2g17mrk0e-fill" data-item-order="0" transform="translate(18.4140625, 380)"><g id="tx_userswan_4mc2g17mrk0e-fill-merged" stroke="none" class="m-text"><g><text style="font: 15px Roboto, sans-serif; white-space: pre;" transform="translate(236.296875, 19)" font-size="15px" font-family="Roboto, sans-serif"><tspan x="-224.3" y="8.5" dominant-baseline="ideographic">Users want AI to help, not replace</tspan></text></g></g></g><g id="g-root-tx_userswan_4mc2g17mrk0e-stroke" data-item-order="0" transform="translate(18.4140625, 380)"></g><g id="g-root-tx_limitedb_4l2ba017mx7nu-fill" data-item-order="0" transform="translate(14, 488)"><g id="tx_limitedb_4l2ba017mx7nu-fill-merged" stroke="none" class="m-text"><g><text style="font: 15px Roboto, sans-serif; white-space: pre;" transform="translate(240.7109375, 28)" font-size="15px" font-family="Roboto, sans-serif"><tspan x="-228.71" y="-0.5" dominant-baseline="ideographic">Limited budget restricts advanced </tspan><tspan x="-56.97" y="17.5" dominant-baseline="ideographic">features</tspan></text></g></g></g><g id="g-root-tx_limitedb_4l2ba017mx7nu-stroke" data-item-order="0" transform="translate(14, 488)"></g><g id="g-root-ic_robo_1hegdjs17mrm6f-fill" data-item-order="0" transform="translate(268.7109375, 341)"></g><g id="g-root-ic_robo_1hegdjs17mrm6f-stroke" data-item-order="0" transform="translate(268.7109375, 341)"><g id="ic_robo_1hegdjs17mrm6f-stroke" fill="none" stroke-linecap="round" stroke-linejoin="round" stroke-miterlimit="4" stroke="#4e88e7" stroke-width="2" stroke-opacity="1"><g><path d="M 10 10M 35.902199 45.429199L 44.389198 40.529198C 46.294601 39.429199 48.5802 40.188202 49.5802 41.9202C 50.680199 43.825401 49.921398 46.111 48.189201 47.111L 36.931 53.611C 34.679199 54.910999 32.200798 55.418201 29.668819 55.0326L 23.39938 54.0644L 19.858959 56.1432M 10 10M 11.761718 46.460999L 22.87538 40.068199C 24.78064 38.968201 26.98592 38.387802 29.14476 38.527L 34.181999 38.851799C 36.240799 38.817802 37.687202 40.523201 37.721199 42.582001C 37.555199 44.294399 36.296402 45.714199 34.510799 45.821201L 27.96104 45.6768M 39.958 17.632L 51.639999 17.632C 51.639999 17.632 56.242001 17.632 56.242001 22.234001L 56.242001 29.278C 56.242001 29.278 56.242001 33.879997 51.639999 33.879997L 39.958 33.879997C 39.958 33.879997 35.356003 33.879997 35.356003 29.278L 35.356003 22.234001C 35.356003 22.234001 35.356003 17.632 39.958 17.632M 10 10M 45.796799 11.224212L 45.796799 17.63282M 10 10M 42.375 24.325241L 42.375 27.21876M 10 10M 49.222599 24.325241L 49.222599 27.21876"></path></g></g></g><g id="g-root-tx_usercont_dfgdco17mrll9-fill" data-item-order="0" transform="translate(130.2109375, 344)"><g id="tx_usercont_dfgdco17mrll9-fill-merged" stroke="none" fill="#4e88e7" fill-opacity="1"><g><text style="font: 20px Roboto, sans-serif; white-space: pre;" transform="translate(124.5, 22)" font-size="20px" font-family="Roboto, sans-serif"><tspan x="-112.5" y="11.5" dominant-baseline="ideographic">User Control</tspan></text></g></g></g><g id="g-root-tx_usercont_dfgdco17mrll9-stroke" data-item-order="0" transform="translate(130.2109375, 344)"></g><g id="g-root-tx_cultural_8vw0pk17mvu2t-fill" data-item-order="0" transform="translate(640.7109375, 398)"><g id="tx_cultural_8vw0pk17mvu2t-fill-merged" stroke="none" fill="#3cc583" fill-opacity="1"><g><text style="font: 20px Roboto, sans-serif; white-space: pre;" transform="translate(10, 22)" font-size="20px" font-family="Roboto, sans-serif"><tspan x="2" y="11.5" dominant-baseline="ideographic">Cultural Differences</tspan></text></g></g></g><g id="g-root-tx_cultural_8vw0pk17mvu2t-stroke" data-item-order="0" transform="translate(640.7109375, 398)"></g><g id="g-root-tx_recommen_zlxevs17mrmdg-fill" data-item-order="0" transform="translate(339.7578125, 140)"><g id="tx_recommen_zlxevs17mrmdg-fill-merged" stroke="none" class="m-text"><g><text style="font: 15px Roboto, sans-serif; white-space: pre;" transform="translate(112.953125, 28)" font-size="15px" font-family="Roboto, sans-serif"><tspan x="-100.95" y="-0.5" dominant-baseline="ideographic">Recommendations change as </tspan><tspan x="-45.05" y="17.5" dominant-baseline="ideographic">model learns</tspan></text></g></g></g><g id="g-root-tx_recommen_zlxevs17mrmdg-stroke" data-item-order="0" transform="translate(339.7578125, 140)"></g><g id="g-root-tx_aioutput_1hd7fdk17mrk0b-fill" data-item-order="0" transform="translate(357.3828125, 104)"><g id="tx_aioutput_1hd7fdk17mrk0b-fill-merged" stroke="none" class="m-text"><g><text style="font: 20px Roboto, sans-serif; white-space: pre;" transform="translate(95.328125, 22)" font-size="20px" font-family="Roboto, sans-serif"><tspan x="-83.33" y="11.5" dominant-baseline="ideographic">AI Output Changes</tspan></text></g></g></g><g id="g-root-tx_aioutput_1hd7fdk17mrk0b-stroke" data-item-order="0" transform="translate(357.3828125, 104)"></g><g id="g-root-tx_userbase_1lqj15k17mvt3i-fill" data-item-order="0" transform="translate(640.7109375, 434)"><g id="tx_userbase_1lqj15k17mvt3i-fill-merged" stroke="none" class="m-text"><g><text style="font: 15px Roboto, sans-serif; white-space: pre;" transform="translate(10, 19)" font-size="15px" font-family="Roboto, sans-serif"><tspan x="2" y="8.5" dominant-baseline="ideographic">User base spans 30+ countries</tspan></text></g></g></g><g id="g-root-tx_userbase_1lqj15k17mvt3i-stroke" data-item-order="0" transform="translate(640.7109375, 434)"></g><g id="g-root-tx_technica_hvwck817mx98p-fill" data-item-order="0" transform="translate(50.9296875, 452)"><g id="tx_technica_hvwck817mx98p-fill-merged" stroke="none" class="m-text"><g><text style="font: 20px Roboto, sans-serif; white-space: pre;" transform="translate(203.78125, 22)" font-size="20px" font-family="Roboto, sans-serif"><tspan x="-191.78" y="11.5" dominant-baseline="ideographic">Technical Limitations</tspan></text></g></g></g><g id="g-root-tx_technica_hvwck817mx98p-stroke" data-item-order="0" transform="translate(50.9296875, 452)"></g><g id="g-root-ic_1_1lvitug17mx6o3-fill" data-item-order="0" transform="translate(268.7109375, 458)"></g><g id="g-root-ic_1_1lvitug17mx6o3-stroke" data-item-order="0" transform="translate(268.7109375, 458)"><g id="ic_1_1lvitug17mx6o3-stroke" fill="none" stroke-linecap="round" stroke-linejoin="round" stroke-miterlimit="4" class="m-stroke" stroke-width="2" stroke-opacity="1"><g><path d="M 10 10M 52.374001 31.75L 55.194 29.208C 56.422653 28.097569 56.820431 26.334553 56.187614 24.804131C 55.554802 23.273708 54.028088 22.306452 52.374001 22.388L 49.574001 22.528C 48.469738 22.581879 47.394154 22.166471 46.612778 21.384333C 45.831398 20.602192 45.417042 19.526207 45.471996 18.421999L 45.613998 15.622C 45.698299 13.966798 44.732014 12.437603 43.200909 11.80316C 41.669804 11.168716 39.905128 11.566284 38.793999 12.796L 36.902 14.872C 36.159782 15.695894 35.102913 16.166281 33.994003 16.166281C 32.885086 16.166281 31.828218 15.695894 31.086 14.872L 29.205999 12.796C 28.094332 11.573892 26.335527 11.180413 24.809078 11.812325C 23.282631 12.444237 22.316578 13.965738 22.394001 15.616L 22.528 18.416C 22.587393 19.525131 22.172993 20.607307 21.387978 21.393085C 20.602961 22.178864 19.521187 22.594315 18.411999 22.535999L 15.612 22.396C 13.961026 22.317085 12.438272 23.283258 11.806445 24.810589C 11.174617 26.337917 11.569777 28.097494 12.794 29.207998L 14.875999 31.098C 15.698843 31.841238 16.16843 32.898186 16.16843 34.007C 16.16843 35.115814 15.698843 36.172764 14.875999 36.916L 12.794 38.795998C 11.565657 39.907806 11.16991 41.672318 11.805765 43.202232C 12.441621 44.732147 13.971462 45.696354 15.625999 45.609997L 18.425999 45.467999C 19.5327 45.412327 20.611263 45.827644 21.39481 46.611191C 22.178354 47.394737 22.593674 48.473301 22.538 49.580002L 22.394001 52.380001C 22.338326 53.599617 22.854368 54.775478 23.789669 55.560188C 24.72497 56.344902 25.972614 56.648762 27.164001 56.382004M 44.493999 51.995998C 44.079788 51.996002 43.743999 51.660213 43.743999 51.246002C 43.743999 50.831787 44.079788 50.496002 44.493999 50.496002M 44.493999 51.995998C 44.908215 51.996002 45.243999 51.660213 45.243999 51.246002C 45.243999 50.831787 44.908215 50.496002 44.493999 50.496002M 44.493999 45.995998L 44.493999 39.996002M 56.119999 51.360001C 56.671791 52.459946 56.61385 53.76733 55.966923 54.814152C 55.319996 55.860973 54.17659 56.497547 52.946003 56.496002L 36.040001 56.495998C 34.810448 56.496078 33.668507 55.859558 33.021942 54.813728C 32.375381 53.767899 32.316376 52.461872 32.866001 51.362003L 41.318001 34.458C 41.918777 33.255363 43.147659 32.495567 44.492001 32.495567C 45.836346 32.495567 47.065228 33.255363 47.666 34.458L 56.118 51.362ZM 31.224001 42.566002C 27.016111 41.196606 24.427002 36.972557 25.116283 32.601463C 25.805565 28.230373 29.568901 25.008049 33.993999 25C 36.543999 25 38.846001 26.059999 40.484001 27.764"></path></g></g></g><g id="g-root-tx_aidesign_8ydx2017mrk7e-fill" data-item-order="0" transform="translate(198.41015625, 38)"><g id="tx_aidesign_8ydx2017mrk7e-fill-merged" stroke="none" class="m-text"><g><text style="font: bold 25px Roboto, sans-serif; white-space: pre;" transform="translate(254.30078125, 25)" font-weight="bold" font-size="25px" font-family="Roboto, sans-serif"><tspan x="-242.3" y="14.5" dominant-baseline="ideographic">AI Design Challenges: Unveiling the Depths</tspan></text></g></g></g><g id="g-root-tx_aidesign_8ydx2017mrk7e-stroke" data-item-order="0" transform="translate(198.41015625, 38)"></g><g id="g-root-ic_huma_v48hi017mvt3j-fill" data-item-order="0" transform="translate(568.7109375, 395)"></g><g id="g-root-ic_huma_v48hi017mvt3j-stroke" data-item-order="0" transform="translate(568.7109375, 395)"><g id="ic_huma_v48hi017mvt3j-stroke" fill="none" stroke-linecap="round" stroke-linejoin="round" stroke-miterlimit="4" stroke="#3cc583" stroke-width="2" stroke-opacity="1"><g><path d="M 10.998 23.5C 10.99654 30.404591 16.593409 36.00264 23.498001 36.00264C 30.402592 36.00264 35.999458 30.404591 35.998001 23.5C 35.999458 16.595409 30.402592 10.997356 23.498001 10.997356C 16.593409 10.997356 10.99654 16.595409 10.998 23.5ZM 28.6 12.084L 25.751999 16.826C 25.16254 17.809853 25.317501 19.068508 26.128 19.880001L 29.747999 23.5L 29.104 26.076C 28.770264 27.415232 29.584948 28.771545 30.924 29.106001L 34.220001 29.93M 11 23.5L 13.716 24.043999C 15.825813 24.466293 17.428869 26.190987 17.695999 28.326L 18.526001 34.972M 48.18 23.293999C 50.758026 21.514328 53.881573 20.701923 57 21M 51 57L 51 53L 49.186001 53C 46.874134 53 45 51.125862 45 48.813999L 45 45L 39.599998 45C 40.098 43.509998 40.559998 41.987999 41.035999 40.486M 57 34.118C 57.001907 35.177353 56.177448 36.05444 55.119999 36.118L 40.444 37.003998C 39.781876 35.0588 39.781876 32.9492 40.444 31.004002C 40.765694 29.504747 41.435764 28.102264 42.400002 26.910002C 42.929546 26.314894 43.764889 26.096395 44.517998 26.355999L 55.702 30.516001C 56.484741 30.807505 57.003899 31.554741 57.004002 32.389999Z"></path></g></g></g></g></g></svg>